<svg viewBox="0 0 512 512"><path d="M414.6 152H97.4c-.3 3.9-1.5-17 21.5 327.6a34.8 34.8 0 0 0 34.6 32.4h205a34.8 34.8 0 0 0 34.6-32.4c23-344.8 21.8-323.8 21.5-327.6zM193.4 448a16 16 0 0 1-17.3-14.6l-16-184a16 16 0 1 1 31.8-2.8l16 184a16 16 0 0 1-14.5 17.3zm78.6-16a16 16 0 1 1-32 0V248a16 16 0 1 1 32 0zm80-182.6-16 184a16 16 0 1 1-32-2.8l16-184a16 16 0 0 1 32 2.8zM421.2 56h-77.4l.1-21.3A34.8 34.8 0 0 0 309.2 0H202.8A34.8 34.8 0 0 0 168 34.8l.1 21.2H90.8A34.8 34.8 0 0 0 56 90.8l.1 29.2H456l.1-29.3A34.8 34.8 0 0 0 421.2 56zM312 53.2c0 1.6-1.2 2.8-2.8 2.8H202.8a2.7 2.7 0 0 1-2.8-2.8V34.8c0-1.5 1.2-2.7 2.8-2.7h106.4c1.6 0 2.8 1.2 2.8 2.8z"/></svg>