


<svg display='none' xmlns='http://www.w3.org/2000/svg'>
    <symbol id='password-eye-on' viewBox='0 0 488.85 488.85'>
        <g>
            <path 
                d='M244.425,98.725c-93.4,0-178.1,51.1-240.6,134.1c-5.1,6.8-5.1,16.3,0,23.1c62.5,83.1,147.2,134.2,240.6,134.2   s178.1-51.1,240.6-134.1c5.1-6.8,5.1-16.3,0-23.1C422.525,149.825,337.825,98.725,244.425,98.725z M251.125,347.025   c-62,3.9-113.2-47.2-109.3-109.3c3.2-51.2,44.7-92.7,95.9-95.9c62-3.9,113.2,47.2,109.3,109.3   C343.725,302.225,302.225,343.725,251.125,347.025z M248.025,299.625c-33.4,2.1-61-25.4-58.8-58.8c1.7-27.6,24.1-49.9,51.7-51.7   c33.4-2.1,61,25.4,58.8,58.8C297.925,275.625,275.525,297.925,248.025,299.625z'
            ></path>
        </g>
    </symbol>

    <symbol id='password-eye-off' viewBox='0 0 469.44 469.44'>
        <g>
            <path d='M231.147,160.373l67.2,67.2l0.32-3.52c0-35.307-28.693-64-64-64L231.147,160.373z'></path>
            <path d='M234.667,117.387c58.88,0,106.667,47.787,106.667,106.667c0,13.76-2.773,26.88-7.573,38.933l62.4,62.4     c32.213-26.88,57.6-61.653,73.28-101.333c-37.013-93.653-128-160-234.773-160c-29.867,0-58.453,5.333-85.013,14.933l46.08,45.973     C207.787,120.267,220.907,117.387,234.667,117.387z'></path>
            <path d='M21.333,59.253l48.64,48.64l9.707,9.707C44.48,145.12,16.64,181.707,0,224.053c36.907,93.653,128,160,234.667,160     c33.067,0,64.64-6.4,93.547-18.027l9.067,9.067l62.187,62.293l27.2-27.093L48.533,32.053L21.333,59.253z M139.307,177.12     l32.96,32.96c-0.96,4.587-1.6,9.173-1.6,13.973c0,35.307,28.693,64,64,64c4.8,0,9.387-0.64,13.867-1.6l32.96,32.96     c-14.187,7.04-29.973,11.307-46.827,11.307C175.787,330.72,128,282.933,128,224.053C128,207.2,132.267,191.413,139.307,177.12z'></path>
        </g>
    </symbol>
    
    <symbol id='home-page-navigation-icon' viewBox='0 0 28 20'>
        <g>
            <path d="M23.0212 1.67671C21.3107 0.879656 19.5079 0.318797 17.6584 0C17.4062 0.461742 17.1749 0.934541 16.9708 1.4184C15.003 1.12145 12.9974 1.12145 11.0283 1.4184C10.819 0.934541 10.589 0.461744 10.3368 0.00546311C8.48074 0.324393 6.67795 0.885118 4.96746 1.68231C1.56727 6.77853 0.649666 11.7538 1.11108 16.652C3.10102 18.1418 5.3262 19.2743 7.69177 20C8.22338 19.2743 8.69519 18.4993 9.09812 17.691C8.32996 17.3997 7.58522 17.0424 6.87684 16.6135C7.06531 16.4762 7.24726 16.3387 7.42403 16.1847C11.5911 18.1749 16.408 18.1749 20.5763 16.1847C20.7531 16.3332 20.9351 16.4762 21.1171 16.6135C20.41 17.0369 19.6639 17.3997 18.897 17.691C19.3052 18.4993 19.7718 19.2689 20.3021 19.9945C22.6677 19.2689 24.8929 18.1364 26.8828 16.6466H26.8893C27.43 10.9731 25.9665 6.04728 23.0212 1.67671ZM9.68041 13.6383C8.39754 13.6383 7.34085 12.4453 7.34085 10.994C7.34085 9.54272 8.37155 8.34973 9.68041 8.34973C10.9893 8.34973 12.0395 9.54272 12.0187 10.994C12.0187 12.4453 10.9828 13.6383 9.68041 13.6383ZM18.3161 13.6383C17.0332 13.6383 15.9765 12.4453 15.9765 10.994C15.9765 9.54272 17.0124 8.34973 18.3161 8.34973C19.6184 8.34973 20.6751 9.54272 20.6543 10.994C20.6543 12.4453 19.6184 13.6383 18.3161 13.6383Z"></path>
        </g>
    </symbol>

    <symbol id='add-channel-navigation-icon' viewBox="0 0 24 24">
        <path d="M20 11.1111H12.8889V4H11.1111V11.1111H4V12.8889H11.1111V20H12.8889V12.8889H20V11.1111Z"></path>
    </symbol>

    <symbol id='friend-icon' viewBox="0 0 24 24">
        <g >
            <path d="M0.5,0 L0.5,1.5 C0.5,5.65 2.71,9.28 6,11.3 L6,16 L21,16 L21,14 C21,11.34 15.67,10 13,10 C13,10 12.83,10 12.75,10 C8,10 4,6 4,1.5 L4,0 L0.5,0 Z M13,0 C10.790861,0 9,1.790861 9,4 C9,6.209139 10.790861,8 13,8 C15.209139,8 17,6.209139 17,4 C17,1.790861 15.209139,0 13,0 Z" transform="translate(2 4)"></path><path d="M0,0 L24,0 L24,24 L0,24 L0,0 Z M0,0 L24,0 L24,24 L0,24 L0,0 Z M0,0 L24,0 L24,24 L0,24 L0,0 Z" fill="none"></path>
        </g>
    </symbol>

    <symbol id='message-bubble-icon' viewBox="0 0 24 24">
        <path d="M4.79805 3C3.80445 3 2.99805 3.8055 2.99805 4.8V15.6C2.99805 16.5936 3.80445 17.4 4.79805 17.4H7.49805V21L11.098 17.4H19.198C20.1925 17.4 20.998 16.5936 20.998 15.6V4.8C20.998 3.8055 20.1925 3 19.198 3H4.79805Z"></path>
    </symbol>

    <symbol id='garbage-can-icon' viewBox="0 0 512 512">
        <g>
            <path d="m414.59 152h-317.18c-.327 3.899-1.505-16.923 21.46 327.57 1.21 18.18 16.44 32.43 34.67 32.43h204.92c18.23 0 33.46-14.25 34.67-32.43 22.985-344.79 21.78-323.75 21.46-327.57zm-221.2 295.94c-8.882.756-16.564-5.803-17.33-14.55l-16-184c-.77-8.81 5.75-16.56 14.55-17.33 8.8-.76 16.56 5.75 17.33 14.55l16 184c.77 8.81-5.75 16.56-14.55 17.33zm78.61-15.94c0 8.84-7.16 16-16 16s-16-7.16-16-16v-184c0-8.84 7.16-16 16-16s16 7.16 16 16zm79.94-182.61-16 184c-.72 8.33-7.71 14.61-15.92 14.61-9.455 0-16.773-8.083-15.96-17.39l16-184c.77-8.8 8.52-15.31 17.33-14.55 8.8.77 15.32 8.52 14.55 17.33zm69.31-193.39h-77.37c.162-2.105.12-.532.12-21.25 0-19.16-15.59-34.75-34.75-34.75h-106.5c-19.16 0-34.75 15.59-34.75 34.75 0 20.318-.043 19.137.12 21.25h-77.37c-19.16 0-34.75 15.59-34.75 34.75 0 28.583-.045 27.228.11 29.25h399.78c.157-2.053.11-.832.11-29.25 0-19.16-15.59-34.75-34.75-34.75zm-109.25-2.75c0 1.52-1.23 2.75-2.75 2.75h-106.5c-1.52 0-2.75-1.23-2.75-2.75v-18.5c0-1.52 1.23-2.75 2.75-2.75h106.5c1.52 0 2.75 1.23 2.75 2.75z"></path>
        </g>
    </symbol>
</svg>