<svg xmlns="http://www.w3.org/2000/svg" width="1920" height="1099"><g fill="none" fill-rule="evenodd"><g fill="#72767d" opacity=".1"><path d="M0 376.4S446.3 111.2 552.6 159c144 64.5-106.7 216.3 8.6 260.8s108-134.6 289.3-142.7c181.2-8.2 452 80.1 593-19s167.7-234.5 358.6-208.8c41.8 5.6 117.9 70 117.9 70V1099L0 1095.4z"/><ellipse cx="692.8" cy="83.7" rx="75.2" ry="45" transform="rotate(-41 692.8 83.7)"/><path d="M1125.5 189.1c0-44 54.3-15.6 163-48 108.7-32.3 124.8-62.7 174.3-41.3 49.5 21.4-53.1 113.7-127.4 133.4-74.3 19.6-210 0-210-44z"/></g><path d="M0 0h1920v1099H0z"/></g></svg>