<svg viewBox="0 0 16 16"><g fill-rule="evenodd"><path d="M4.7 0c-.9 0-1.4.2-2 .4a4 4 0 0 0-1.4 1 4 4 0 0 0-.9 1.4l-.4 2a56.7 56.7 0 0 0 .4 8.4c.2.6.5 1 1 1.5.4.4.8.7 1.4.9l1.9.4a56.7 56.7 0 0 0 8.5-.4 4 4 0 0 0 1.5-1 4 4 0 0 0 .9-1.4 56.7 56.7 0 0 0 0-10.5 4 4 0 0 0-1-1.4 4 4 0 0 0-1.4-.9A56.7 56.7 0 0 0 4.7 0ZM8 2a50.8 50.8 0 0 1 4.3.3c.4.1.6.3.9.5.2.3.4.5.5.9L14 5a50.8 50.8 0 0 1-.3 7.3c-.1.4-.3.6-.5.9-.3.2-.5.4-.9.5a50.8 50.8 0 0 1-8.6 0c-.4-.1-.6-.3-.9-.5-.2-.3-.4-.5-.5-.9a50.8 50.8 0 0 1 0-8.6c.1-.4.3-.6.5-.9.3-.2.5-.4.9-.5A50.8 50.8 0 0 1 8 2Z"/><path d="M8 10a2 2 0 1 1 0-4 2 2 0 0 1 0 4Zm0-6a4 4 0 1 0 0 8 4 4 0 0 0 0-8Zm5 0a1 1 0 1 1-2 0 1 1 0 0 1 2 0Z"/></g></svg>