<svg xmlns="http://www.w3.org/2000/svg" width="254" height="154"><mask id="a" fill="#fff"><path fill-rule="evenodd" d="M.8 147h203.4V.8H.8z"/></mask><g fill="none" fill-rule="evenodd"><path fill="#4f545c" fill-opacity=".3" d="M92.8 22h147.9a12.3 12.3 0 0 1 0 24.6H164a12 12 0 0 0 0 24h46.5a28 28 0 0 1 0 55.8H32.3a30.3 30.3 0 0 1 0-60.5h16.6a22 22 0 0 0 22-22 22 22 0 0 1 22-22"/><path fill="#36393f" d="m69 56.2-3-4.8a1 1 0 0 1 .4-1.3l-1.7-2.8a1 1 0 0 1-1.4-.4l-7.2-12a37.5 37.5 0 0 0 5.8 22.6c.2.2.2.5.2.8l-1.5 7.6c2.5-3.4 5.2-6.6 8.3-9.7"/><path fill="#4f545c" d="m67.8 50.4 2.6 4.4A71 71 0 0 1 85 44.2 34 34 0 0 0 66 33c-4-.7-7.1-.5-8.8-.3l8 13.2c.2.5 0 1-.4 1.4l1.7 2.8a1 1 0 0 1 1.4.3"/><path fill="#36393f" d="m164.9 65.9-1.5-7.6c0-.3 0-.6.2-.8 0 0 7-10.3 5.8-22.6l-12.8 21.3c3 3 5.8 6.3 8.3 9.7"/><path fill="#4f545c" d="M159.6 33a34 34 0 0 0-19.1 11.2A70.9 70.9 0 0 1 155 54.8l13.3-22c-1.7-.3-4.9-.5-8.8.2m16.6 89c0-2-1.5-3.7-3.5-3.8l.7 7.4a3.8 3.8 0 0 0 2.8-3.6"/><path fill="#72767d" d="m70.4 135.9.9-14c-1.6-.5-3-1-4.3-1.7l.5 3v.8l.4 8.8c0 1 0 2-.3 3zm82.6 0-.7-13.3c-10 3.2-23.2 4.8-39.5 4.8s-29.5-1.6-39.6-4.8l-.8 13.3zm1.2-13.9.9 13.9h17.1l-2.1-23.6c-3.7 4-9 7.2-15.9 9.7"/><path fill="#4f545c" d="M89.8 95H76.2a1 1 0 1 1 0-2h13.6a1 1 0 1 1 0 2zm41.7 0a1 1 0 1 1 0-2H145a1 1 0 1 1 0 2zm-26.7 13.3a1 1 0 0 1 .7-1.7H120a1 1 0 0 1 .7 1.7l-7.2 8.6a1 1 0 0 1-1.5 0zm-49.1-24c.4 0 .7.2.9.5a17.5 17.5 0 0 1 0 18.5 1 1 0 0 1-.9.5h-3.1c.7 2 1.7 3.9 3 5.6 4.6 1.7 8.3 4.7 10.3 8.3 10.2 5.2 25.8 7.7 46.9 7.7 35.3 0 55.1-7.1 60.1-21.6h-3.1a1 1 0 0 1-.9-.5 17.5 17.5 0 0 1 0-18.5c.2-.3.6-.5.9-.5h2.5a70 70 0 0 0-39.8-41.6v.6c0 .4-.3.8-.7 1a54.6 54.6 0 0 1-38.1 0 1 1 0 0 1-.7-1v-.6a70 70 0 0 0-39.8 41.6z"/><path fill="#4f545c" d="M95 42.6a54 54 0 0 0 35.5 0v-4.1a36.4 36.4 0 0 1-17.7 3.5c-3.5 0-6.9-.3-9.8-.8a1 1 0 0 1-.8-1.2l-2.6-.6a1 1 0 0 1-1.2.6 16 16 0 0 1-3.4-1.5z"/><path fill="#72767d" d="M102.2 40a1 1 0 0 1 1.1-.8c2.8.5 6.1.8 9.5.8 10.8 0 17.7-2.7 17.7-4.5s-7-4.5-17.7-4.5C101.9 31 95 33.6 95 35.5c0 .6 1 1.7 4 2.6.5.2.8.8.6 1.3l2.6.6"/><path fill="#36393f" d="M55 94c0 3.3-.8 6-2 7.8h2a15.5 15.5 0 0 0 0-15.5h-2a14 14 0 0 1 2 7.7m115.4 7.8h2.1a14 14 0 0 1-2-7.8c0-3.2.8-6 2-7.7h-2.1a15.5 15.5 0 0 0 0 15.5"/><path fill="#b9bbbe" d="M117.8 108.6h-10.1l5 6z"/><path fill="#4f545c" d="M46.6 94c0 4.5 1.7 7.8 3.1 7.8S53 98.5 53 94s-1.7-7.7-3.2-7.7-3.1 3.3-3.1 7.7M179 94c0-4.4-1.7-7.7-3.2-7.7-1.5 0-3.2 3.3-3.2 7.7s1.7 7.8 3.2 7.8c1.5 0 3.1-3.3 3.1-7.8M89.7 27.2a8 8 0 1 0 0-16.1 8 8 0 0 0 0 16M65.9 132.9l-.1-2.7c-1 1.8-2.5 3.5-4.3 5a26 26 0 0 1-16.5 5.4c-5.3 0-10.3-1.4-14.2-4-2-1.3-3.6-3-4.8-4.6l.2 2.6c.1 3.8 2.3 7.3 6.1 9.9 4 2.6 9 3.9 14.4 3.6a24 24 0 0 0 14-5c3.5-2.8 5.4-6.5 5.2-10.2"/><path fill="#36393f" d="M39.2 121.5h13.3a1 1 0 0 1 0 2H39.2a1 1 0 0 1 0-2m-13.5 3.6c.2 3.8 2.4 7.3 6.2 9.8 3.9 2.6 9 4 14.4 3.7a24 24 0 0 0 14-5c3.3-2.6 5-6 5.2-9.5l-.1-1.6c-1-7.2-9.2-12.7-19.2-12.7H45c-11 .5-19.6 7.4-19.3 15.3"/><g fill="#202225"><path d="m116.5 110.3-3 3.5a1 1 0 0 1-1.5 0l-3-3.5a1 1 0 0 1 .8-1.7h5.9a1 1 0 0 1 .8 1.7zm-4.5 6.6a1 1 0 0 0 1.5 0l7.2-8.6a1 1 0 0 0-.7-1.7h-14.5a1 1 0 0 0-.7 1.7zM145 95a1 1 0 1 0 0-2h-13.5a1 1 0 1 0 0 2zm-55.2-2H76.2a1 1 0 1 0 0 2h13.6a1 1 0 1 0 0-2m150.9 42.9h-20.5a1 1 0 1 0 0 2h20.5a1 1 0 1 0 0-2m-25 0h-1.5a1 1 0 1 0 0 2h1.5a1 1 0 1 0 0-2"/><path d="M138.4 22.8a37.8 37.8 0 0 1 29 67.5c-1 .8-2.5.1-2.7-1.2-.1-1.7-.5-3.8-1.3-5.2a4 4 0 0 1 .8-4.6 27.2 27.2 0 0 0-3.6-41.8 1 1 0 0 0-1.1 1.6 25 25 0 0 1 3.2 38.9 3.7 3.7 0 0 1-6-1.1 83.2 83.2 0 0 0-5-9.9l-1.3-6.7c-.6-3.1-.1-6.3 1.3-9.1a36.4 36.4 0 0 0 3.3-22.6 1 1 0 0 0-.2-.4l-.3-.2-.2-.1c-.2 0-4.6-1.2-11 0-4.5.8-10.7 3-17 8.5A8.2 8.2 0 0 1 118 38l-.2-.1a1.9 1.9 0 0 1-.8-3 37.5 37.5 0 0 1 21.5-12.1zm-87 97.3c0-1.3 1.2-2.3 2.4-1.8h.2c.8.3 1.2 1 1.2 1.8l-.7 11.9a.8.8 0 0 1-1.7 0l-1.3-11.9zM37 90.9c0 4.4-1.7 7.7-3.2 7.7s-3.1-3.3-3.1-7.7 1.7-7.7 3.1-7.7 3.2 3.3 3.2 7.7zm1.7 7.7a1 1 0 0 1-1-1.3 14 14 0 0 0 1.3-6.4c0-2.5-.4-4.7-1.2-6.4a1 1 0 0 1 .9-1.3c.3 0 .6.2.8.5 2.4 4.6 2.4 9.8 0 14.4a1 1 0 0 1-.8.5zm58.2 25.6c14.3 0 26.3-1.2 35.8-3.7 2-.5 3.8 1 4 2.9v1.3c.3 4.3-3.2 8-7.5 8H64.4a7.5 7.5 0 0 1-7.5-8v-1.3c.2-2 2.1-3.4 4-2.9 9.5 2.5 21.5 3.7 35.9 3.7zm53.6 8.5H144a5.3 5.3 0 0 1-5.3-5l-.4-6.6a3 3 0 0 1 1.9-3 42 42 0 0 0 9.5-5.2 3 3 0 0 1 4.8 2.2l1 11.8a5.3 5.3 0 0 1-5.2 5.8zm6.4-16c-.1-1 1-1.5 1.7-1a3.8 3.8 0 0 1 .4 5.9c-.6.6-1.7.1-1.8-.8l-.3-4.1zm-21-67.9a70.5 70.5 0 0 0-9-6.4 2.1 2.1 0 0 1-.4-3.3 33.4 33.4 0 0 1 23-9.8c1.4 0 2.2 1.5 1.5 2.7l-9.5 15.9a3.7 3.7 0 0 1-5.5 1zm11.8 5.6a1 1 0 0 0-.2.7l.6 3c.2 1.2-1.2 1.8-2 1l-2.7-3.2a5.2 5.2 0 0 1-.7-6.3l8.6-14.1c.7-1.2 2.4-.6 2.3.7-.5 10.2-5.9 18-6 18.2zm9 36.5c0-4.4 1.7-7.7 3.2-7.7s3.1 3.3 3.1 7.7-1.6 7.7-3.1 7.7-3.2-3.3-3.2-7.7zm-1.7-7.7c.7 0 1.2.7 1 1.3-.9 1.7-1.3 3.9-1.3 6.4 0 2.5.4 4.7 1.2 6.4a1 1 0 0 1-.9 1.3 1 1 0 0 1-.8-.5 15.4 15.4 0 0 1 0-14.4c.2-.3.5-.5.8-.5zm-76-45c0-1.3 1.3-2.1 2.5-1.6l.9.3c.5.2 1-.1 1.2-.6A1 1 0 0 0 83 35c-3-1-4-2-4-2.7 0-1.8 7-4.5 17.8-4.5s17.7 2.7 17.7 4.5-7 4.5-17.7 4.5c-3.4 0-6.7-.3-9.5-.8a1 1 0 0 0-1.1.8c-.1.6.2 1.1.8 1.2a57.3 57.3 0 0 0 25-1.4c1.2-.5 2.5.4 2.5 1.6 0 .8-.5 1.4-1.2 1.7a54 54 0 0 1-33 0c-.8-.3-1.3-1-1.3-1.7zm-2 1.4v.6c0 .4.3.8.7.9a54.6 54.6 0 0 0 38.1 0c.4-.1.7-.5.7-1v-.5a70.3 70.3 0 0 1 39 39.2c.4 1.1-.5 2.4-1.7 2.4a1 1 0 0 0-.8.4 17.5 17.5 0 0 0 0 18.5c.1.3.5.5.8.5a2 2 0 0 1 1.8 3c-6.6 12.5-26 18.6-58.8 18.6a117 117 0 0 1-44.5-6.5A7.9 7.9 0 0 1 49 113a19 19 0 0 0-7.4-6 8 8 0 0 1-3.7-3.4 2 2 0 0 1 1.8-3c.3 0 .7-.3.9-.6a17.5 17.5 0 0 0 0-18.5 1 1 0 0 0-.9-.4c-1.2 0-2-1.3-1.6-2.4a70.3 70.3 0 0 1 39-39.2zM46 54.4c-.1-.1-5.5-7.9-6-18-.1-1.4 1.7-2 2.4-.8l5 8.2a1 1 0 0 0 1.3.3c.5-.3.6-.9.3-1.4L42.6 32c-.7-1.2 0-2.6 1.4-2.7A34.1 34.1 0 0 1 69 41a73.6 73.6 0 0 0-10.8 7.4c-2 1.6-5 1.1-6.4-1.1a1 1 0 0 0-1.7 1l2 3.5A2 2 0 0 1 52 54a76 76 0 0 0-5.2 6c-.5.6-1.6.1-1.4-.7l.8-4.3c0-.2 0-.5-.2-.7zm-15.8 52.3c10 0 18.3 5.4 19.2 12.6v1.6c0 3.5-1.8 7-5.2 9.6a24 24 0 0 1-14 5 24 24 0 0 1-14.3-3.7c-3.8-2.6-6-6-6.2-9.8-.3-8 8.3-14.8 19.3-15.3h1.2zM44.6 140a24 24 0 0 1-14 5 24 24 0 0 1-14.3-3.7c-3.8-2.5-6-6-6.1-9.8l-.2-2.7c1.2 1.7 2.8 3.3 4.8 4.6a25.6 25.6 0 0 0 15.5 4 26 26 0 0 0 15.2-5.3c1.8-1.5 3.3-3.2 4.3-5l.1 2.6c.2 3.8-1.7 7.5-5.3 10.3zm29-132a8 8 0 1 1 0 16 8 8 0 0 1 0-16zm117.8 124.7h-25a8.9 8.9 0 0 1-9-8v-.2a5.8 5.8 0 0 0-1-11.5c-.3-3.6.4-7 1.8-10.3l.8-2.2.8.1c1.6 0 3-1.2 3.9-3.3 1-2 2.5-3.6 4.3-4.9a39.7 39.7 0 0 0-22.8-72.2v2-2a39.9 39.9 0 0 0-28.8 12.3v-.2c0-3.2-5.7-5.3-12.7-6.1a2 2 0 0 1-1.5-3.2l.2-.2a2 2 0 0 1 2.7-.5l1.6 1c1 .8 2.3.6 3.2-.2a50.5 50.5 0 0 1 16.3-10.5c1-.4 1.6-1.6 1.4-2.7l-.3-1.7c-.2-1.2.6-2.4 1.9-2.6l11.6-2.2c1.3-.2 2.5.6 2.7 1.9l.3 1.6c.2 1.1 1.2 2 2.3 2 6.6.1 13 1.5 19 4 1.1.5 2.4.2 3-.8l.5-.7a3 3 0 0 1 4.3-.8l8.5 5.9a3 3 0 0 1 .8 4.2l-.5.7c-.7 1-.6 2.3.2 3.1A50.5 50.5 0 0 1 192.5 41c.4 1 1.6 1.6 2.7 1.4h.1a4 4 0 0 1 4.5 3l1.6 8.7a4 4 0 0 1-3.1 4.5h-.1c-1.2.2-2 1.2-2 2.4a52.3 52.3 0 0 1-4.1 19c-.5 1-.1 2.3.9 3l1.2.8c1.1.8 1.4 2.3.6 3.4l-6.6 9.5a2.4 2.4 0 0 1-3.3.7l-1.3-1c-1-.6-2.3-.5-3.1.3a50.5 50.5 0 0 1-16.3 10.6c-1 .4-1.7 1.6-1.5 2.7l1 4.9c0 .5.5.9 1 .8.6-.1 1-.6.9-1.2l-1-4.9c0-.2.2-.4.4-.5 6.3-2.5 12-6.2 16.9-11h.6l4 2.8c.5.3 1.1.2 1.4-.2l10.5-15.2c.3-.5.2-1-.2-1.4l-4.1-2.8a.5.5 0 0 1-.2-.6 51.6 51.6 0 0 0 4.2-19.7c0-.2.2-.4.4-.4l4.9-1a1 1 0 0 0 .8-1l-3.3-18.2a1 1 0 0 0-1.2-.8l-4.9.9a.5.5 0 0 1-.5-.3c-2.5-6.3-6.2-12-11-17a.5.5 0 0 1 0-.5l2.8-4a1 1 0 0 0-.2-1.5L170.7 6.6a1 1 0 0 0-1.4.3l-2.8 4c-.1.3-.4.3-.6.2-6.3-2.6-12.9-4-19.7-4.2a.5.5 0 0 1-.4-.4l-1-4.8a1 1 0 0 0-1-.8l-18.2 3.3a1 1 0 0 0-.8 1.2l.9 4.8c0 .2-.1.5-.3.5-6.3 2.6-12 6.3-17 11 0 .2-.3.2-.5 0l-4.1-2.8a1 1 0 0 0-1.4.3l-4.6 6.6h-1C87 25.8 77 28 77 32.3v3.9c0 .7-.4 1.4-1.1 1.7a.9.9 0 0 1-1.2-.8v-5.9c0-2.6 1.3-5.1 3.7-6.4a10 10 0 1 0-9.5 0 7.3 7.3 0 0 1 3.8 6.4v7.5c0 .4-.2.7-.5.8a2 2 0 0 1-2.3-.4A33.3 33.3 0 0 0 39 28a1 1 0 0 0-.4.5v.1A37 37 0 0 0 41 49.3 23.9 23.9 0 0 1 40 70a54.9 54.9 0 0 0-4.8 11h-.3a1 1 0 0 0-.4.2 3 3 0 0 0-.8-.1c-2.9 0-5.1 4.1-5.1 9.7s2.2 9.7 5.1 9.7h.8c.5 1.7 1.2 3.3 2.2 4.8-2.5-.6-5-.8-7.8-.7-12 .5-21.6 8.3-21.2 17.4l.3 4.1a6.2 6.2 0 0 1-6.2 6.5 1 1 0 1 0 0 2H3c3 0 5.8 1.4 7.5 3.8 1.1 1.7 2.7 3.2 4.6 4.5a25.6 25.6 0 0 0 15.6 4 26 26 0 0 0 15.1-5.4c1.3-1 2.3-2.1 3.2-3.3a8.8 8.8 0 0 1 7.1-3.6h135.1a1 1 0 1 0 0-2z" mask="url(#a)" transform="translate(16 3.2)"/><path d="M39.2 123.5h13.3a1 1 0 0 0 0-2H39.2a1 1 0 0 0 0 2m181-14.5c.6 0 1-.5 1-1 0-.9.7-1.5 1.5-1.5a1 1 0 1 0 0-2c-.8 0-1.5-.7-1.5-1.6a1 1 0 0 0-2 0c0 .9-.7 1.6-1.5 1.6a1 1 0 0 0 0 2c.8 0 1.5.6 1.5 1.5 0 .5.4 1 1 1M31.7 50l.7-.4 1.1-1.1a1 1 0 1 0-1.4-1.5L31 48.2a1 1 0 0 0 .7 1.7m-6 6c.3 0 .6-.1.7-.3l1.2-1.2a1 1 0 0 0-1.4-1.4L25 54a1 1 0 0 0 .7 1.8m6.4-.2a1 1 0 0 0 1.4 0c.4-.4.4-1 0-1.5L32.4 53a1 1 0 1 0-1.4 1.4zm-5.9-6a1 1 0 0 0 1.4 0c.4-.3.4-1 0-1.4L26.4 47a1 1 0 1 0-1.4 1.5z"/></g><path d="M0 0h254v154H0z"/></g></svg>