<svg xmlns="http://www.w3.org/2000/svg" width="421" height="218"><g fill="none" fill-rule="evenodd"><path fill="#4f545c" fill-opacity=".3" d="M0 125.6a17 17 0 0 0 17 17.1h29.5a29.9 29.9 0 0 1 30 30 29.9 29.9 0 0 0 29.8 29.8H372a10.2 10.2 0 1 0 0-20.4h-31.2a7.1 7.1 0 1 1 0-14.3H366a48 48 0 1 0 0-95.8h-51.4c-11 0-20-9-20-20s-8.9-20-20-20H79.3a13.2 13.2 0 1 0 0 26.3h14.6a25.1 25.1 0 0 1 0 50.2H17.1A17 17 0 0 0 0 125.7"/><path fill="#36393f" d="M117.6 192H133v-43.8c0-6 6.2-11.5 16.8-15.9v-.7a10 10 0 0 1 10-10h2.6c.2-2.9 1-5.6 2.4-8V94.9a1 1 0 0 1-2-.4V25h-60.6v5.1c3 .5 5.5 2.1 7 4.8a9.8 9.8 0 0 1 .2 10 1 1 0 0 1-.9.5h-.1c-2.3 0-4.5-.8-6.2-2.2V192h9.4c.3 0 .6.2.8.4h4.4c.2-.2.4-.4.8-.4"/><path fill="#72767d" d="M371.4 141.4c1.1-.9 2.7-.9 4.4-.2 1.9.8 4 2.7 4.3 4.7.3 2.1-.7 4.5-2.6 6a6 6 0 0 1-3.8 1.4 5 5 0 0 1-1.8-.4c-1.1-.4-1.9-1.8-2.1-3.9-.3-2.4 0-6.4 1.6-7.6zM365 159c-.4.5-1 .7-1.8.7-1 0-2-.4-2.6-.6-1.9-.8-2-1.8-2-2.4a2 2 0 0 1 1.7-1.7c1.4-.3 3.7.4 4.5 1.5.9 1.3.5 2 .2 2.5zm-6.6 1c4.5 2.5 12 1.2 17.5-3 2.2-1.7 7.2-6.5 5-13.1a17.2 17.2 0 0 0-7.4-9.2 15.7 15.7 0 0 0-8.2-2.5 9.7 9.7 0 0 0-7 2.6v2.5l.6-.2c1-.2 1.9 0 2.7.5 1.5.9 2.3 2.4 2 4a7.7 7.7 0 0 1-3 4.1c-.7.4-1.4.6-1.9.6h-.3z"/><path fill="#36393f" d="M371.7 148.8c.3 1.7.7 2.2 1 2.3 1 .4 2.4.2 3.6-.7a5 5 0 0 0 1.8-4.2c-.1-1-1.4-2.4-3-3.1a4 4 0 0 0-1.6-.4 2 2 0 0 0-1 .3c-.4.4-1.1 3-.8 5.8m-12.1-4.7a6 6 0 0 0 2-2.9c.2-.7-.3-1.4-1-1.8a2 2 0 0 0-1-.3h-.2c-.4.1-.7.4-1 .7v4.5c.3.1.7 0 1.2-.2"/><path fill="#4f545c" d="M363.2 157.8a3.4 3.4 0 0 0-2.4-.8c.5.4 1.7.8 2.4.8"/><path fill="#36393f" d="M331 115.4c3 2 4.7 5.3 4.5 8.9 0 .3-.2.7-.5.8a10 10 0 0 1-12.5-3v43c0 .5-.5 1-1 1a1 1 0 0 1-.5-.2v9a6 6 0 0 1 5.8 6v3.4c0 1-.8 1.8-1.8 1.8h-1c.5 2 .7 3.9.7 5.9h31.7v-16.4c-1.8-.3-3.5-1-4.2-2.5-.4-1-.2-1.7 0-2.1.8-1 2.3-1.1 3.7-1.1h.5V83.4a12.8 12.8 0 0 1-10.8 6 13 13 0 0 1-8.7-3.5 1 1 0 0 1-.3-1c.9-4.1 3.7-7.4 7.5-9-.7-1.5-1-3.1-.9-4.8 0-.4.2-.7.5-.9a9.8 9.8 0 0 1 12.7 3.2v-30h-34v70.8c3-1 6-.6 8.6 1"/><path fill="#4f545c" d="M322.7 192c0-2-.3-4-.8-6H320a23 23 0 0 0-.8 6z"/><path fill="#36393f" d="M324.8 184v-3.2a3.9 3.9 0 0 0-7.7 0v3.3z"/><path fill="#36393e" d="M40.8 192h2.3v-17.4h-2.3z"/><path fill="#4f545c" d="M37.7 165.5v6c.5.3 1 .6 1.3 1.1h7.2v-7a4.2 4.2 0 0 0-8.5 0"/><path fill="#72767d" d="M57 182.1h1.5v-2.8a3.7 3.7 0 0 0-7.3 0v2.8h1.5z"/><path fill="#4f545c" d="M53.7 192H56v-7.9h-2.4z"/><path fill="#36393e" d="M36.1 179h2v-3a3.7 3.7 0 0 0-7.3 0v3H33z"/><path fill="#4f545c" d="M34 192h1v-11h-1.2z"/><path fill="#72767d" d="M108 43.3a8 8 0 0 0-.4-7.4 7.9 7.9 0 0 0-6.4-3.9 8 8 0 0 0 .3 7.5 7.9 7.9 0 0 0 6.4 3.8M397.7 90a7.9 7.9 0 0 0 5.5 5c1.6-2 2-4.7 1.1-7.3a7.9 7.9 0 0 0-5.4-5 7.9 7.9 0 0 0-1.2 7.3"/><path fill="#4f545c" d="M346 75.3c3.4-.9 7-.3 9.8 1.5a7.9 7.9 0 0 0-3.2-4.3 7.9 7.9 0 0 0-7.4-.6 8 8 0 0 0 .8 3.4m-19.9 47.6c2.3 1.5 5 1.7 7.4.7 0-2.7-1.3-5-3.6-6.5a7.9 7.9 0 0 0-7.4-.7 8 8 0 0 0 3.6 6.5M269 65a5 5 0 0 0 3.2 3.3 5 5 0 0 0 .7-4.4 5 5 0 0 0-3.1-3.3 5 5 0 0 0-.8 4.5M64 134c2.5.7 5.2 0 7.2-1.7 2-1.8 3-4.4 2.7-7-2.6-.7-5.3 0-7.3 1.7s-3 4.4-2.6 7"/><path fill="#72767d" d="M84.4 79.5c-3.2-2-7-2.1-10.4-.5.1 3.7 2 7 5.3 9 3.2 2 7 2 10.4.4-.1-3.7-2-7-5.3-9"/><path fill="#4f545c" d="M358.4 38.5a10.8 10.8 0 0 0 17.6 4.7c-1-3.5-3.8-6.2-7.5-7.1-3.6-1-7.4 0-10.1 2.4"/><path fill="#72767d" d="M356.1 79.4a10.8 10.8 0 0 0-10.2-2 10.8 10.8 0 0 0-7.3 7.5 11 11 0 0 0 17.5-5.5m6 94.3c6.3-1 9.3-5.5 10-9a6 6 0 0 0-.1-3 21 21 0 0 1-8.1 1.7c-2 0-3.9-.3-5.5-1v7c1.8-.4 3.6-1.2 4.3-2.2a1 1 0 1 1 1.7 1.1c-1.5 2.1-5.3 3.1-6.8 3.4l-1.7.2c-.5 0-1.5 0-1.9.2v.2c.8 1.6 5.7 1.8 8.2 1.4"/><g fill="#36393e"><path d="M244.8 197c-1.1 0-2.2-.2-3.2-.6v3.1a21 21 0 0 1-6.2 15c4-.3 8-.7 11.8-1.2v-16.7c-.7.3-1.6.4-2.4.4"/><path d="M239.6 199.5v-4.2l-.4-.3a21 21 0 0 1-3.8 5.2 19 19 0 0 0-5.6 13.6v1.2l2.6-.2 1.5-1.7a19 19 0 0 0 5.7-13.6m-56.7-.5v-2c-1.6-.3-3-1-4.3-1.9v17.7c3.4.5 7 1 10.6 1.3l-.2-.2a21 21 0 0 1-6-14.9m90 2.6a2.9 2.9 0 0 1-2.8-2.9V177a2.9 2.9 0 0 1 5.7 0v21.7a3 3 0 0 1-2.9 3zm5.2-26.2a5.2 5.2 0 0 0-10.4 0v24.9a5.2 5.2 0 0 0 10.4 0z"/><path d="M190.2 194.4a8.7 8.7 0 0 1-5.3 2.5v2.1c0 5 2 9.9 5.6 13.4l1.7 2 2.4.2v-8a19 19 0 0 0-4.4-12.2m-26.2-9.5c.5 0 1-.4 1-1v-15l-2-.6V184c0 .6.4 1 1 1"/><path d="M164 191.7c3 0 5.6-2.6 5.6-5.7v-16.2l-2.5-.5V184a3.1 3.1 0 0 1-6.2 0v-16.1l-2.5-.7v19c0 3 2.5 5.6 5.6 5.6m34.8-12.6a6 6 0 0 1-6.1 1.1v2.3a4 4 0 0 0 6.1-3.4m85.7-4.4V203c1.5-.8 2.8-1.7 4-2.5v-35.8a1 1 0 0 1 2 0v34.1c2.5-2.2 3.8-4.6 3.8-7V154c-2.8 4-8.3 7.5-15.9 10.5 3.6 2 6.1 5.8 6.1 10.2m-54.4 4.5c1-1.8 2.3-3.6 3.8-5.1l.8-.8-2.4.1a19 19 0 0 0-2.2 5.8m-.3 10v15.4c1-2.1 2.4-4.1 4.1-5.9 1.6-1.5 2.9-3.4 3.8-5.3a8.7 8.7 0 0 1-1.7-5.1v-11.6c0-.5 0-1-.2-1.5l-.4.4a19 19 0 0 0-5.6 13.5m-31-14.4v-.4l-2-.9-2.7-.2a5 5 0 0 0-1.4 3.5v1.2a4 4 0 0 0 6.1-3.2"/><path d="M249.3 195.7V213l5-.8v-28a1 1 0 1 1 2 0v27.6l5-1v-15.5a1 1 0 1 1 2.1 0v15c3.6-.9 6.9-1.8 10-2.8h-.5c-4 0-7.3-3.2-7.3-7.2v-24.9a7.3 7.3 0 0 1 14.6 0v24.9c0 2.4-1.2 4.5-3 5.9a67 67 0 0 0 5.2-2.3v-29.2c0-4.4-2.9-8-6.8-9.2-3 1.1-6.3 2-9.9 3a9.4 9.4 0 0 0-2.3 6.2v14.2a1 1 0 1 1-2 0v-14.2c0-2 .4-3.9 1.3-5.5l-6.3 1.3v6a1 1 0 1 1-2.1 0V171h-.8v17.4c0 3.1-1.7 5.9-4.2 7.4"/><path d="M273.7 177a.8.8 0 0 0-1.6 0v21.7c0 .5.4.8.8.8.5 0 .8-.3.8-.8zm-135-19a19.2 19.2 0 0 1-3.7-4v37.6c0 2.5 1.3 4.9 3.8 7.2zm12.8 6.7c-2-.7-3.8-1.5-5.4-2.3V183a1 1 0 1 1-2.1 0v-21.8l-3.1-1.8v41l3 2v-13.6a1 1 0 1 1 2.2 0v14.6c1.6.9 3.4 1.7 5.4 2.4zm47.3 28.4v-3.8a1 1 0 1 1 2.1 0v3.8a1 1 0 1 1-2 0zm5.2-17.4-3.1-.7v4.1a6.1 6.1 0 0 1-8.2 5.7v3.5c0 1.6-.5 3.1-1.2 4.4 3.3 3.8 5.2 8.7 5.2 13.8v8.3l7.3.4zm-33.8 33.9a1 1 0 1 1-2 0V205a5 5 0 0 0-10.1 0 1 1 0 1 1-2.1 0 7.1 7.1 0 0 1 14.2 0zm6.3-16.8a8.7 8.7 0 0 1-1.3-4.5v-17.4l-3.5-.6V186a7.7 7.7 0 0 1-15.4 0v-19.6l-2.8-.9v41.2c3 1.1 6.5 2.1 10.1 3v-.3c0-1.5-1.2-2.8-2.8-2.8a1 1 0 1 1 0-2c2.7 0 4.9 2.1 4.9 4.8v.9c3.4.8 7 1.5 10.8 2.1zm39.7 12.2a1 1 0 0 1-1-1v-22.4a1 1 0 0 1 2 0V204c0 .6-.4 1-1 1zm11.5-22.1c0-3 .6-5.8 1.7-8.4-1.7.7-3.5 1-5.3 1.2v13.6a1 1 0 1 1-2.1 0v-13.5h-10v7.3a1 1 0 1 1-2 0v-7.3h-4v39.5h3.8v-21.1a1 1 0 1 1 2.1 0v21.2h3.1v-2.7a1 1 0 0 1 2.1 0v2.7h4.8v-19.6a1 1 0 1 1 2 0v19.5l3.7-.2z"/></g><g fill="#4f545c"><path d="M176.5 192.8v19.6l2.1.4V195a8.8 8.8 0 0 1-2-2.3m14.9-.1-1.3 1.7a19 19 0 0 1 4.4 12.1v8.1l2 .2v-8.3a21 21 0 0 0-5.1-13.8m-6.6 6.3v-2a8.6 8.6 0 0 1-2 0v2a21 21 0 0 0 6.1 15l.2.1 3 .3-1.7-2a18.9 18.9 0 0 1-5.6-13.4m-24 5.6a1 1 0 1 0 0 2c1.5 0 2.7 1.3 2.7 2.8v.3l2 .6v-.9c0-2.7-2-4.8-4.8-4.8"/><path d="M163 198a7 7 0 0 0-7 7 1 1 0 1 0 2 0 5 5 0 0 1 10.1 0v4.6a1 1 0 1 0 2.1 0V205a7 7 0 0 0-7.1-7.1m-9.6-32.5-2-.8V206l2 .8zm10.5 28.2c4.2 0 7.7-3.4 7.7-7.7v-15.7l-2.1-.5V186a5.6 5.6 0 0 1-11.2 0v-19l-2.1-.6V186c0 4.3 3.4 7.7 7.7 7.7"/><path d="M164 187a3 3 0 0 0 3-3v-14.7l-2-.5V184a1 1 0 0 1-2 0v-15.6l-2.1-.5V184c0 1.7 1.4 3.1 3 3.1m-18.9-2.9c.6 0 1-.4 1-1v-20.7l-2-1V183c0 .6.4 1 1 1m1 4.8a1 1 0 1 0-2 0v13.5l2 1.1zm-5.1-29.4c-.8-.5-1.5-1-2.1-1.6v40.9l2 1.6zm65.2 16.3h-.1l-2-.1v39.5l2.1.1zM201 179v-4l-2.2-.8.1.4a4 4 0 0 1-6.1 3.2v2.3a6 6 0 0 0 6.1-1.1 4 4 0 0 1-6.1 3.4v2.3a6 6 0 0 0 8.2-5.7m10 14a1 1 0 0 0-1 1v21.3h2.1v-21.2c0-.6-.5-1-1-1m0-9c.5 0 1-.5 1-1.1v-7.3h-2v7.3c0 .6.4 1 1 1m6.2-2.5a1 1 0 0 0-2 0V204a1 1 0 1 0 2 0zm-1 30a1 1 0 0 0-1 1v2.8h2v-2.7c0-.6-.4-1-1-1M200.9 193v-3.8a1 1 0 1 0-2 0v3.8a1 1 0 1 0 2 0m22.1-2.7c.6 0 1-.5 1-1v-13.7h-2v13.6c0 .6.5 1 1 1m0 4.5a1 1 0 0 0-1 1v19.5h2v-19.5c0-.6-.4-1-1-1m12.4 5.4a21 21 0 0 0 3.8-5.2l-1.5-1.6c-1 2-2.2 3.8-3.8 5.3a21.2 21.2 0 0 0-4.1 6V189c0-5.1 2-10 5.6-13.5l.4-.4a5 5 0 0 0-1.1-2l-.8.9a21.3 21.3 0 0 0-3.8 5.1c.4-2 1.2-4 2.2-5.8h-.5c-.8.5-1.6.8-2.4 1.1a21.2 21.2 0 0 0-1.7 8.4V215l2.1-.1v-1.2c0-5.2 2-10 5.6-13.6m6.2-.7v-3l-2-1.2v4.2c0 5.2-2 10-5.7 13.6l-1.5 1.7 3-.2c4-4 6.2-9.4 6.2-15m5.6-3v16.7l2.1-.3v-17.3l-2 1m9-12.5a1 1 0 1 0-2 0v28l2-.4zm-1-6.6c.6 0 1-.4 1-1v-6.1l-2 .4v5.7c0 .6.4 1 1 1m27.1-3V204l2.1-1v-28.2c0-4.4-2.5-8.3-6-10.2l-3 1c4 1.2 7 4.8 7 9.2M261.3 189a1 1 0 1 0 2.1 0v-14.2c0-2.4.9-4.6 2.3-6.2l-3 .7c-.9 1.6-1.4 3.5-1.4 5.5zm1 5.3a1 1 0 0 0-1 1v15.6l2.1-.5v-15c0-.6-.4-1-1-1"/><path d="M273 205.5a5.2 5.2 0 0 1-5.3-5.2v-24.9a5.2 5.2 0 0 1 10.4 0v24.9c0 2.8-2.3 5.2-5.2 5.2m7.3-5.2v-24.9a7.3 7.3 0 0 0-14.6 0v24.9c0 4 3.3 7.2 7.3 7.2h.4l3.9-1.3c1.8-1.4 3-3.5 3-6"/><path d="M273 199.5a.8.8 0 0 1-.9-.8V177c0-.4.4-.8.8-.8.5 0 .8.4.8.8v21.7c0 .5-.3.8-.8.8zm2.8-22.5a2.9 2.9 0 0 0-5.7 0v21.7a2.9 2.9 0 0 0 5.7 0zm14.7-12.4a1 1 0 1 0-2 0v35.8l2-1.7zm-83.4-88.4 6.6 12c.2.4.6.4.7.4s.6 0 .8-.4l6.5-12a8.4 8.4 0 0 0-7.3-12.3 8.3 8.3 0 0 0-7.3 12.3"/></g><path fill="#72767d" d="M247.4 172H236a7 7 0 0 1 2 4.7v11.6a6.7 6.7 0 0 0 13.4 0v-16.9a19 19 0 0 1-4.1.5m-54.8 0h-11.2a19 19 0 0 1-4.2-.5v16.9a6.7 6.7 0 0 0 13.5 0v-11.6a7 7 0 0 1 1.9-4.8"/><path fill="#4f545c" d="M168.4 109a19 19 0 0 1 13-5h66c5 0 9.6 1.9 13 5v-.6a13 13 0 0 0-13-13h-66a13 13 0 0 0-13 13z"/><path fill="#72767d" d="M245.8 140.3c.6-.6 1.5-.6 2.1 0a5.3 5.3 0 0 0 7 0 1.5 1.5 0 1 1 2 2.2 8 8 0 0 1-5.5 2c-2 0-4.1-.6-5.6-2-.6-.6-.6-1.6 0-2.2m-62.9 2.2a8 8 0 0 1-5.5 2c-2 0-4.1-.6-5.6-2a1.5 1.5 0 1 1 2.1-2.2 5.3 5.3 0 0 0 7 0 1.5 1.5 0 1 1 2 2.2m-18.5-21h2.4a1 1 0 0 1 0 2h-7a8 8 0 0 0-8 8v10.6a8 8 0 0 0 8 8h7a1 1 0 0 1 0 2h-2.4v.8a17 17 0 0 0 17 17h11a19 19 0 0 1-5.4-13.1v-14.6a8 8 0 0 1 8-8h27.4c.6 0 1 .4 1 1h4.3c0-.6.4-1 1-1h5a8 8 0 0 1 8 8v2.7a11.6 11.6 0 0 1 13.4 11.6c0 6.5-5.3 11.8-11.7 11.8h-5.6a19 19 0 0 1-1.4 1.6h11a17 17 0 0 0 17-17v-.8h-2a1 1 0 0 1 0-2h7a8 8 0 0 0 8-8v-10.5a8 8 0 0 0-8-8h-7a1 1 0 1 1 0-2h1.9a17 17 0 0 0-17-15.7h-66a17 17 0 0 0-16.9 15.7"/><path fill="#72767d" d="M222.4 136.2H195a6 6 0 0 0-6 6v3.9a7 7 0 0 1 6-3.5h38.7a7 7 0 0 1 5.7 3l.3-.2v-3.2a6 6 0 0 0-6-6h-5a1 1 0 0 1-1-1h-4.3c0 .5-.4 1-1 1"/><path fill="#b9bbbe" d="M209 162.3c1.6 0 3 1.3 3 3s-1.4 3-3 3h-6c-1.7 0-3-1.4-3-3s1.3-3 3-3zm24.7-19.7H195a7 7 0 0 0-6 3.5v10.7a17 17 0 0 0 17 17h16.7c5 0 9.4-2.2 12.5-5.5h-15.5c-1.6 0-3-1.4-3-3s1.4-3 3-3h6a3 3 0 0 1 2.9 2 11 11 0 0 0 3-7.8c0-5 3.3-9.4 7.8-11a7 7 0 0 0-5.7-2.9z"/><path fill="#4f545c" d="M225.7 162.3h-6c-1.6 0-3 1.3-3 3s1.4 3 3 3h6.4a1 1 0 0 1-.3-2c.1 0 1.4-.6 2.8-2a3 3 0 0 0-2.9-2m-22.7 0c-1.7 0-3 1.3-3 3s1.3 3 3 3h6c1.6 0 3-1.4 3-3s-1.4-3-3-3zM155.8 141a5 5 0 0 0 5 5h3c.5 0 1-.4 1-1v-16.5c0-.6-.5-1-1-1h-3a5 5 0 0 0-5 5zm109.6 5h3a5 5 0 0 0 5-5v-8.5a5 5 0 0 0-5-5h-3a1 1 0 0 0-1 1V145c0 .6.4 1 1 1"/><path fill="#b9bbbe" d="M229.4 166.3h14a9.7 9.7 0 1 0-9.8-9.8c0 4.9-2.3 8-4.2 9.8"/><path fill="#202225" d="M372.5 143a2 2 0 0 1 1-.3 4 4 0 0 1 1.5.4c1.7.7 3 2.2 3.1 3a5 5 0 0 1-1.8 4.3 4 4 0 0 1-3.7.7c-.2 0-.6-.6-.9-2.3-.3-2.8.4-5.4.8-5.8m-.6 10a5 5 0 0 0 1.9.3 6 6 0 0 0 3.7-1.4c2-1.5 3-3.9 2.6-6-.3-2-2.4-3.9-4.3-4.7-1.7-.7-3.3-.7-4.4.2-1.6 1.2-2 5.2-1.6 7.6.2 2.1 1 3.5 2 4m-11.5 2.1a2 2 0 0 0-1.6 1.7c-.1.6 0 1.6 1.9 2.4.6.2 1.6.6 2.6.6.7 0 1.4-.2 1.8-.7.3-.4.7-1.2-.2-2.5-.8-1-3-1.8-4.5-1.5m-30.4-38a7.9 7.9 0 0 1 3.6 6.5c-2.4 1-5.1.8-7.4-.7a7.9 7.9 0 0 1-3.4-4.6 2 2 0 0 1 1.7-2.5c1.9-.3 3.8.2 5.5 1.3m-9 48.8.6.2c.5 0 1-.5 1-1v-43a10 10 0 0 0 8 4.1 10 10 0 0 0 4.5-1c.3-.2.5-.6.5-1a9.8 9.8 0 0 0-4.5-8.8 9.8 9.8 0 0 0-6.4-1.6 2 2 0 0 1-2.1-2V41a1 1 0 0 0-2 0v124c0 .4.2.7.5 1M42.2 81.3c.6 0 1-.5 1-1v-1.8a1 1 0 0 0-2 0v1.8c0 .5.5 1 1 1m121.7 14c.4 0 .7-.3.9-.6V1a1 1 0 1 0-2 0v93.4c0 .5.5 1 1 1M357.5 27c.6 0 1-.4 1-1v-2.3a1 1 0 0 0-2 0V26c0 .6.5 1 1 1M399 82.6c2.6.7 4.6 2.6 5.4 5.1v.1c1.5 4.3-5 6.5-6.6 2.3V90a7.9 7.9 0 0 1 1.2-7.4m4.5 14.6h.1c.3 0 .6-.1.8-.4a9.8 9.8 0 0 0 2-9.7 9.8 9.8 0 0 0-7.6-6.6 1 1 0 0 0-1 .3 9.8 9.8 0 0 0-1.9 9.8 10 10 0 0 0 7.6 6.6M269.7 60.5c1.5.5 2.7 1.7 3.1 3.3s.2 3.2-.7 4.4a5 5 0 0 1-3.2-3.2 5 5 0 0 1 .8-4.5m2.5 9.9h.2c.3 0 .6-.1.8-.3a7 7 0 0 0 1.6-7 7 7 0 0 0-5.2-4.8 1 1 0 0 0-1 .3c-1.7 1.9-2.3 4.5-1.6 7s2.7 4.2 5.2 4.8M55.5 50.7a5 5 0 0 1 4-2 5 5 0 0 1-5 6.5 5 5 0 0 1 1-4.5M53.8 57h1a7 7 0 0 0 5.5-2.7 7 7 0 0 0 1-7 1 1 0 0 0-.9-.7 7 7 0 0 0-6.5 2.8 7 7 0 0 0-1 7c.2.3.5.6.9.6m12.7 70a8 8 0 0 1 3.2-1.8 3 3 0 0 1 3.5 4A8 8 0 0 1 64 134c-.4-2.6.6-5.2 2.6-7m-3.8 8.7c1 .4 2.1.6 3.2.6 2.4 0 4.7-.9 6.5-2.5 2.8-2.4 4-6 3.2-9.5a1 1 0 0 0-.6-.7 9.6 9.6 0 0 0-9.8 2A9.8 9.8 0 0 0 62 135c0 .3.3.6.7.7m219.5-58.3c2.2-3 5.8-4.6 9.5-4.3 1.2 3.5.6 7.3-1.6 10.3s-5.9 4.6-9.6 4.3c-1.2-3.6-.6-7.4 1.7-10.3m-2.5 12.2h1.8c4 0 7.7-1.7 10.1-5 2.9-3.7 3.5-8.5 1.7-12.8a1 1 0 0 0-.8-.6c-4.6-.6-9 1.2-12 5s-3.4 8.4-1.6 12.8c.1.3.4.5.8.6"/><path fill="#202225" d="M354 172.3v-.2c.4-.2 1.4-.2 2-.2.5 0 1.1 0 1.6-.2 1.5-.3 5.3-1.3 6.7-3.4a1 1 0 1 0-1.6-1.1c-.3.4-.8.8-1.3 1-1.3.9-3-.1-3-1.7v-4.1c1.6.7 3.5 1 5.5 1a21 21 0 0 0 8-1.7c.3.3.5 1.3.2 3-.7 3.5-3.7 8-10 9-2.4.4-7.3.2-8-1.4zM368.6 36c3.1.8 5.6 2.9 7 5.7a2 2 0 0 1-.6 2.4 10.8 10.8 0 0 1-9 1.5c-3-.8-5.5-2.9-7-5.7a2 2 0 0 1 .7-2.4c2.6-1.8 5.8-2.4 9-1.5zm-10 108.2v-4.5c.2-.3.5-.6.9-.7h.3l1 .3c.6.4 1.1 1.1 1 1.8a6 6 0 0 1-2.1 2.9c-.5.3-1 .3-1.2.2zm4.2-11.7c.9-.2 1.7-.3 2.6-.3a17.5 17.5 0 0 1 15.7 11.7c2.1 6.6-2.9 11.4-5.1 13.1-5.5 4.2-13 5.5-17.5 3v-13.7h.3c.5 0 1.2-.2 2-.6a7.7 7.7 0 0 0 3-4.2c.2-1.5-.6-3-2-4-1-.4-1.9-.6-2.8-.4-.1 0-.3 0-.5.2v-2.5c1.3-1.1 2.7-1.9 4.3-2.3zM317.2 184v-3.3a3.9 3.9 0 0 1 7.7 0v3.3zm2 7.9c.1-2 .4-4 1-6h1.8c.5 2 .8 4 .8 6zm-51.3-26.2a3 3 0 0 1-3.5-4.3 19 19 0 0 0 2-8.6v-.8h3a10 10 0 0 0 10-10v-2.9a3 3 0 0 1 4.5-2.6c6.6 3.4 10.5 7.4 10.5 11.6 0 6.9-10.4 13.2-26.5 17.6zm26.5 25.8c0 2.5-1.3 4.9-3.8 7.1l-2 1.7a34.8 34.8 0 0 1-6 3.5 67.1 67.1 0 0 1-9.2 3.6 121.2 121.2 0 0 1-19 4.7 185.3 185.3 0 0 1-26.6 2.9l-3.6.2H222l-4.8.1H210l-3.9-.1h-2l-7.4-.5-2.1-.2a211.6 211.6 0 0 1-16-1.8l-2-.4a164.9 164.9 0 0 1-23-5.7 81 81 0 0 1-9.6-4.3 34 34 0 0 1-5.2-3.6c-2.5-2.3-3.8-4.7-3.8-7.2v-32c0-2 2.2-3 3.7-1.7a30.2 30.2 0 0 0 7.4 4.5 67.2 67.2 0 0 0 14.8 5.4 130 130 0 0 0 8.7 2l2 .5 3.6.6v17.4a8.6 8.6 0 0 0 3.4 6.8 8.7 8.7 0 0 0 14-6.8v-11.5a5 5 0 0 1 1.5-3.5l2.8.2a19 19 0 0 0 9.1 2.4h16.7l1.4-.1a18.9 18.9 0 0 0 7.7-2.2l2.8-.2a5 5 0 0 1 1.2 1.9l.2 1.5v11.6a8.7 8.7 0 0 0 3.2 6.7l.4.3a8.7 8.7 0 0 0 13.9-7V171a180 180 0 0 0 12.2-2.5 111 111 0 0 0 12.7-4c5-2 9.2-4.2 12.2-6.7a2.3 2.3 0 0 1 3.7 1.8zm-144.5-52.3v2.8a10 10 0 0 0 10 10h2.6v.8c0 3 .7 5.9 2 8.4a3 3 0 0 1-3.5 4.3c-15.9-4.4-26-10.6-26-17.4 0-4.2 3.9-8.1 10.5-11.6 2-1 4.4.4 4.4 2.7zm42.8 32.6a7 7 0 0 0-2 4.8V188a7 7 0 0 1-5.7 7 6.7 6.7 0 0 1-7.7-6.7v-13.4a3 3 0 0 1 3.1-3h1zm39.2-8.6c1-1.8 1.8-4 1.8-6.8 0-3.7 2-7.3 5.6-8.8A9.8 9.8 0 0 1 253 157a10 10 0 0 1-10 9.2h-9.5a2 2 0 0 1-1.8-3zm4.3 8.6h12.3a3 3 0 0 1 3 3V188a7 7 0 0 1-5.7 7 6.7 6.7 0 0 1-7.7-6.7v-11.6a7 7 0 0 0-1.9-4.8zm-84.3-40.3a8 8 0 0 1 8-8h7a1 1 0 0 0 0-2h-.4c-1 0-1.9-1-1.7-2a17 17 0 0 1 16.7-13.7h66a17 17 0 0 1 16.6 13.7c.2 1-.6 2-1.6 2a1 1 0 0 0 0 2h7a8 8 0 0 1 8 8V142a8 8 0 0 1-8 8h-7a1 1 0 1 0 0 2h1.2c.4 0 .8.4.8.8a17 17 0 0 1-17 17h-11l1.4-1.6h5.2a12 12 0 0 0 12-10.6c.7-7-4.8-12.9-11.6-12.9h-.1c-.9 0-1.6-.7-1.6-1.5v-1.1a8 8 0 0 0-8-8h-5a1 1 0 1 0 0 2h5a6 6 0 0 1 6 6v1.2l-1.6 2.6a12 12 0 0 0-6.5 10.5 10.9 10.9 0 0 1-5.8 9.9 1 1 0 0 0 .2 1.9h9.3a17 17 0 0 1-12.6 5.5H206a17 17 0 0 1-17-17V142a6 6 0 0 1 6-6h27.4a1 1 0 0 0 0-2H195a8 8 0 0 0-8 8v14.7c0 4.3 1.5 8.3 4 11.5.4.7 0 1.6-.9 1.6h-8.7a17 17 0 0 1-17-17c0-.4.3-.8.8-.8h1.6a1 1 0 0 0 0-2h-7a8 8 0 0 1-8-8zm16.6-23.2a13 13 0 0 1 13-13h66a13 13 0 0 1 13 13v.7a19 19 0 0 0-13-5.2h-66c-5 0-9.6 2-13 5.2zM349 86.8c-3.4 1-7 .4-9.7-1.6a1 1 0 0 1-.3-1 10.8 10.8 0 0 1 16.7-5.2c.3.1.4.6.3 1a10.8 10.8 0 0 1-7 6.8zm3.7-14.4a8 8 0 0 1 1.6 1.4c.7.8 0 2-1 1.6-2.3-.7-4.8-.8-7.2-.2a8 8 0 0 1-.8-2.6c0-.5.3-1 .8-1.1 2.2-.7 4.6-.4 6.6 1zm67 119.5h-50.2c-6 0-11-5-11-11v-5.1a21.7 21.7 0 0 0 4.1-.2c7-1 11-6.3 11.6-11l.2-1.8a4 4 0 0 1 1.7-3.4l1-.8c5.5-4.2 7.7-9.8 5.9-15.3-1.3-4-4.3-7.7-8.3-10.3-4-2.5-8.6-3.4-12.4-2.4a3 3 0 0 1-3.8-3V43a12.8 12.8 0 0 0 10.4 5.2c3.4 0 6.6-1.4 9.1-3.9.3-.2.4-.6.3-1a12.5 12.5 0 0 0-9.2-9c-2.7-.8-5.4-.6-7.9.3a2 2 0 0 1-2.7-1.8V31a1 1 0 0 0-2 0v38.4c0 1.4-1.5 2.2-2.7 1.5a10 10 0 0 0-10-.6 1 1 0 0 0-.5.9c0 1.7.2 3.3 1 4.7-4 1.7-6.7 5-7.6 9.1-.1.3 0 .7.3 1a12.8 12.8 0 0 0 16.7.6c1.2-.9 2.8-.1 2.8 1.3v78.4l-2.8 3.8c-.6.2-1 .4-1.3.9-.3.4-.5 1 0 2 .3.9 1 1.5 2 2a4 4 0 0 1 2.1 3.5v6.5a7 7 0 0 1-7 7h-22.8a2 2 0 0 1-2-1.8c0-1.4-.3-2.8-.6-4.1h1c1 0 1.8-.8 1.8-1.8v-3.5c0-3.2-2.6-5.8-5.8-5.8a5.9 5.9 0 0 0-5.9 5.8v3.5c0 1 .8 1.8 1.8 1.8h1c-.3 1.3-.5 2.7-.6 4a2 2 0 0 1-2 1.9h-11a8 8 0 0 1-8-8v-35.8c0-6-6.3-11.6-17-16v-.6a10 10 0 0 0-10-10h-.3a3 3 0 0 1-3-2.4c-.6-3-1.9-5.6-3.6-8v-2.8a15 15 0 0 0-15-15h-66a15 15 0 0 0-15 15v2.9l-1.2 1.6-.4.8c-1 1.7-1.6 3.5-2 5.4a3 3 0 0 1-3 2.5 10 10 0 0 0-10 10v.7c-10.6 4.4-16.8 9.9-16.8 15.9V184a8 8 0 0 1-8 8h-7.4a1 1 0 0 0-.8.4 1 1 0 0 0-.2.6c0 .6.4 1 1 1h15.7c3.7 13.3 38 23.4 81.3 23.4s77.6-10 81.3-23.4h123.7a1 1 0 1 0 0-2zM101.2 32c2.6.2 5 1.6 6.4 3.9a8 8 0 0 1 1 3.4A3 3 0 0 1 104 42a8 8 0 0 1-2.8-10zM52.7 182.1h-1.5v-2.8a3.7 3.7 0 0 1 7.3 0v2.8h-1.4zm2.5 9.9h-.7a.9.9 0 0 1-.8-.9v-7H56v7c0 .5-.4.9-.9.9zm-13 0h-.5a.9.9 0 0 1-.9-.9v-16.5h2.3v16.5c0 .5-.4.9-.9.9zm-4.5-20.6v-5.9a4.2 4.2 0 0 1 8.5 0v7.1H39l-1.3-1.2zM38 192a.9.9 0 0 1-.9-.9V181h1.7v10c0 .5-.4.9-.8.9zm-5-13h-2.2v-3a3.7 3.7 0 0 1 7.4 0v3H36zm1 13h1v-11h-1.2zM79.2 88C76 86 74 82.7 74 79c3.3-1.6 7.2-1.5 10.4.5 2.4 1.4 4 3.6 4.8 6.1a3 3 0 0 1-2.4 3.8c-2.5.5-5.2 0-7.5-1.4zm32.3 104h-9.6V43l.3.2a9.8 9.8 0 0 0 6.2 2.2h.1c.4 0 .7-.2.9-.6a9.8 9.8 0 0 0-.1-10 9.8 9.8 0 0 0-7.4-4.7V21a1 1 0 0 0-2 0v9.3l-.2.2a9.8 9.8 0 0 0 .1 10V188a4 4 0 0 1-8 0V37.7a1 1 0 0 0-2 0v44.5a12.9 12.9 0 0 0-17.3-4.7 1 1 0 0 0-.5.9 12.9 12.9 0 0 0 12.9 13.2c2.7 0 5 2 5 4.7V190a2 2 0 0 1-2 2h-29a.9.9 0 0 1-.8-.9v-7h1.4c.6 0 1-.4 1-1v-3.6c0-3-2-5.5-4.9-5.9a5.7 5.7 0 0 0-6.4 5.7v3.8c0 .6.5 1 1 1h1.5v7c0 .5-.4.9-.9.9H46a.9.9 0 0 1-.8-.9v-16.5h2c.6 0 1-.5 1-1v-8c0-2.6-1.5-4.8-3.7-5.8a2 2 0 0 1-1.2-1.8V91a1 1 0 0 0-2 0v66.8a2 2 0 0 1-1.3 1.9 6.2 6.2 0 0 0-4.2 5.8v5c-.8-.1-1.8-.2-2.7.1a6 6 0 0 0-4.2 5.9v3.5c0 .5.5 1 1 1H32v10c0 .5-.4.9-.9.9H9.6a1 1 0 0 0 0 2h102c.5 0 1-.4 1-1l-.2-.6a1 1 0 0 0-.8-.4z"/><path fill="#202225" d="M208.1 66.8a8.3 8.3 0 0 1 13.6 9.4l-6.5 12c-.2.4-.6.4-.8.4s-.5 0-.7-.4l-6.6-12a8.4 8.4 0 0 1 1-9.4zm3.8 22.3c.5 1 1.5 1.5 2.5 1.5s2-.5 2.5-1.5l6.6-12a10.4 10.4 0 0 0-9-15.2 10.3 10.3 0 0 0-9.1 15.3zm-34.5 55.5c2 0 4-.7 5.5-2.1a1.5 1.5 0 1 0-2-2.2 5.3 5.3 0 0 1-7 0 1.5 1.5 0 0 0-2 2.2 8 8 0 0 0 5.5 2m74 0c2 0 4-.6 5.5-2a1.5 1.5 0 0 0-2-2.2 5.3 5.3 0 0 1-7 0 1.5 1.5 0 1 0-2 2.2 8 8 0 0 0 5.5 2m132.5-28.2h.5c.5 0 1 .5 1 1v.5a1 1 0 1 0 2 0v-.5c0-.5.4-1 1-1h.5a1 1 0 0 0 0-2h-.5a1 1 0 0 1-1-1v-.5a1 1 0 1 0-2 0v.5c0 .6-.5 1-1 1h-.5a1 1 0 0 0 0 2M146.2 68c.8 0 1.5.7 1.5 1.5a1 1 0 1 0 2 0c0-.8.7-1.5 1.5-1.5a1 1 0 0 0 0-2c-.8 0-1.5-.6-1.5-1.5a1 1 0 1 0-2 0c0 .9-.7 1.5-1.5 1.5a1 1 0 0 0 0 2m24.7 8.5c.8 0 1.5.6 1.5 1.5a1 1 0 0 0 2 0c0-.9.7-1.5 1.5-1.5a1 1 0 0 0 0-2c-.8 0-1.5-.7-1.5-1.5a1 1 0 0 0-2 0c0 .8-.7 1.5-1.5 1.5a1 1 0 0 0 0 2m-29.6 16.7c.2 0 .5 0 .7-.3l1.1-1.1a1 1 0 1 0-1.4-1.5l-1.2 1.2a1 1 0 0 0 .8 1.7m-6 6c.3 0 .5-.2.7-.3l1.2-1.2a1 1 0 0 0-1.4-1.4l-1.2 1.1a1 1 0 0 0 .7 1.7m6.4-.2a1 1 0 0 0 1.4 0c.4-.4.4-1 0-1.5l-1.1-1.1a1 1 0 0 0-1.5 1.4zm-5.9-6a1 1 0 0 0 1.4 0c.4-.4.4-1 0-1.4l-1.2-1.2a1 1 0 1 0-1.4 1.5zm239.8 10a1.5 1.5 0 1 1 0-3 1.5 1.5 0 0 1 0 3m0-5a3.5 3.5 0 1 0 0 7 3.5 3.5 0 0 0 0-7"/></g></svg>