<svg xmlns="http://www.w3.org/2000/svg" width="85" height="85"><g fill="none" fill-rule="evenodd"><path fill="#222426" d="M51.4 3h-.2c-2-.5-3.9-.8-5.8-1a1 1 0 1 1 .1-2c2 .2 4.1.5 6.1 1a1 1 0 0 1-.2 2m-21 .5a1 1 0 0 1-.2-2c2-.5 4-1 6-1.3a1 1 0 0 1 .3 2 40.3 40.3 0 0 0-6 1.3M65.1 9a39.8 39.8 0 0 0-5.7-3.2 1 1 0 1 1 .9-1.7c1.9.9 3.7 2 5.4 3.1a1 1 0 0 1-.6 1.8M17 10.3a1 1 0 0 1-.6-1.8 42 42 0 0 1 5.2-3.4 1 1 0 1 1 1 1.8c-1.8 1-3.4 2-5 3.2a1 1 0 0 1-.6.2m58.8 9.4a1 1 0 0 1-.8-.4 40 40 0 0 0-3.7-4.6 1 1 0 0 1 1.5-1.4 42 42 0 0 1 3.9 4.8 1 1 0 0 1-.9 1.6M7 21.5a1 1 0 0 1-.8-1.5c1-1.8 2.3-3.5 3.6-5a1 1 0 1 1 1.5 1.2A40.1 40.1 0 0 0 7.8 21a1 1 0 0 1-.9.5m75 12a1 1 0 0 1-1-.8c-.4-1.9-1-3.8-1.7-5.6a1 1 0 0 1 1.8-.8c.8 2 1.4 4 1.9 6a1 1 0 0 1-1 1.2m-80.3 2h-.2a1 1 0 0 1-.8-1c.4-2.1.9-4.1 1.5-6a1 1 0 1 1 2 .5 29 29 0 0 0-1.5 5.8 1 1 0 0 1-1 .8m81 13h-.2a1 1 0 0 1-.8-1.2c.2-1.8.4-3.7.4-5.6v-.3a1 1 0 0 1 2 0v.3c0 2-.2 4-.4 5.9a1 1 0 0 1-1 .8M1.7 50.7a1 1 0 0 1-1-.9c-.4-2-.6-4-.7-6.1a1 1 0 0 1 2-.1c0 2 .3 4 .7 5.9a1 1 0 0 1-1 1.2m76 12.1a1 1 0 0 1-.8-1.5 40 40 0 0 0 2.5-5.3 1 1 0 0 1 1.9.7 42 42 0 0 1-2.6 5.6 1 1 0 0 1-1 .5M7.3 64.7a1 1 0 0 1-.8-.5 48.3 48.3 0 0 1-3-5.5 1 1 0 1 1 2-.8C6 59.7 7 61.5 8 63.1a1 1 0 0 1-.9 1.6m61 9.7a1 1 0 0 1-.6-1.8 40.2 40.2 0 0 0 4.2-4 1 1 0 1 1 1.5 1.3 43.5 43.5 0 0 1-4.5 4.3 1 1 0 0 1-.6.2m-50.6 1.4a42.5 42.5 0 0 1-5.3-4.2l-.1-.1a1 1 0 0 1 1.4-1.4c1.5 1.4 3 2.7 4.6 3.9a1 1 0 0 1-.6 1.8m37.4 6a1 1 0 0 1-.3-2 40 40 0 0 0 5.4-2.3 1 1 0 0 1 1 1.8 41.7 41.7 0 0 1-6.1 2.4m-23.9.7h-.3c-2-.6-4-1.3-5.8-2.1a1 1 0 0 1 .8-1.9 40 40 0 0 0 5.6 2 1 1 0 0 1-.3 2m11 1.4h-2a1 1 0 0 1-1-1c.1-.6.6-1 1.1-1a42.7 42.7 0 0 0 6-.2c.5 0 1 .4 1 1 0 .5-.3 1-.9 1-1.4.2-2.8.2-4.3.2"/><path fill="#72767d" d="M61.5 37.1A20 20 0 0 0 22 41.8 20.1 20.1 0 0 0 61 48a1 1 0 0 1 1.2-.6c.9-3.1 1-6.4.4-9.5a1 1 0 0 1-1.2-.8M68.7 66 64 61.2a29.1 29.1 0 0 1-2.7 2.7l4.8 4.7z"/><path fill="#2e3136" d="m72.2 65.3-6.8 6.8 10.9 10.8L83 76z"/><path fill="#222426" d="M62.7 62.6c.8-.7 2-.8 2.6 0l2.1 2c.7.8.7 2 0 2.6v.1c-.8.7-2 .7-2.6 0l-2.1-2c-.7-.8-.7-2 0-2.7zm-1.4-40a27.4 27.4 0 1 1-38.8 38.6 27.4 27.4 0 0 1 38.8-38.7zm4.8 48.7 5.4-5.3a1 1 0 0 1 1.4 0l8 8a3 3 0 0 1 0 4.3l-2.5 2.4a3 3 0 0 1-4.3 0l-8-8a1 1 0 0 1 0-1.4zm5-7.8c-.5.6-1.4.6-2 0l-2.7-2.7a2 2 0 0 1-.2-2.4 29.4 29.4 0 0 0-5.6-39.2 30.8 30.8 0 0 0-38 .6 29.3 29.3 0 0 0 36 46.2c.7-.5 1.7-.4 2.3.3l2.7 2.7c.6.6.6 1.5 0 2-.5.6-.5 1.5 0 2l10.8 11c1 1 2.7 1 3.7 0l5.9-6c1-1 1-2.6 0-3.6L73.2 63.5c-.6-.6-1.5-.6-2 0z"/><path fill="#4f545c" d="M26.3 26.2a22.1 22.1 0 0 1 37.2 10.5c0 .5-.2 1-.8 1.2.6 3.1.5 6.4-.4 9.5.6.1.9.7.7 1.2a22 22 0 0 1-43-6.8 22 22 0 0 1 6.4-15.6m-3.7 35a27.4 27.4 0 1 0 38.7-38.8 27.4 27.4 0 0 0-38.7 38.8"/><path fill="#4f545c" d="M26.3 26.2a22.1 22.1 0 0 1 37.2 10.5c0 .5-.2 1-.8 1.2.6 3.1.5 6.4-.4 9.5.6.1.9.7.7 1.2a22 22 0 0 1-43-6.8 22 22 0 0 1 6.4-15.6m-3.7 35a27.4 27.4 0 1 0 38.7-38.8 27.4 27.4 0 0 0-38.7 38.8"/><path fill="#222426" d="M26.3 57.5A22 22 0 0 0 63 48.6a1 1 0 0 0-.6-1.2 1 1 0 0 0-1.3.6 20.1 20.1 0 1 1 .4-10.9c.1.6.7.9 1.2.8.6-.1.9-.7.8-1.2a22 22 0 1 0-37.2 20.8"/></g></svg>