<svg xmlns="http://www.w3.org/2000/svg" viewBox="0 0 36 36"><path fill="#FFCC4D" d="M36 18a18 18 0 1 1-36 0 18 18 0 0 1 36 0"/><path fill="#664500" d="M28.5 17.8c-.1-.1-1.5-3.3-4.5-3.3s-4.4 3.2-4.5 3.3c0 .2 0 .4.2.6h.6s1.3-.9 3.7-.9c2.4 0 3.7.9 3.7.9a.5.5 0 0 0 .8-.6zm-12 0c-.1-.1-1.5-3.3-4.5-3.3s-4.4 3.2-4.5 3.3a.5.5 0 0 0 .8.6s1.3-.9 3.7-.9c2.4 0 3.7.9 3.7.9a.5.5 0 0 0 .8-.6zM18 22c-3.6 0-6-.4-9-1-.7-.1-2 0-2 2 0 4 4.6 9 11 9s11-5 11-9c0-2-1.3-2.1-2-2-3 .6-5.4 1-9 1z"/><path fill="#FFF" d="M9 23s3 1 9 1 9-1 9-1-2 4-9 4-9-4-9-4z"/></svg>