<svg xmlns="http://www.w3.org/2000/svg" viewBox="0 0 36 36"><path fill="#FFDB5E" d="M35 18c0 .6-.2 1-.4 1.5-1.3 4.3-7.6 4-16.5 4.2-1.5 0-.7 1.8-.1 5.7.3 2.5-1.3 6.4-4 6.4-4.5 0-.2-3.6-4.2-12.4-2.1-4.7-6.9-2-6.9-6.7V5.9c0-1.8.2-3.5 2.8-3.8 2.5-.3 2-2.1 5.5-2.1h18a3.3 3.3 0 0 1 2.7 5.3c1 .6 1.7 1.7 1.7 3a3 3 0 0 1-.7 2 3.3 3.3 0 0 1 .8 5.2c.8.6 1.3 1.5 1.3 2.6z"/><path fill="#EE9547" d="M23 14.8h8.6c1.2 0 2.3.6 2.9 1.6a.9.9 0 0 1-1.5.9c-.3-.5-.8-.8-1.4-.8h-8.8a1.6 1.6 0 0 0 0 3.2h5.9a.9.9 0 0 1 0 1.7h-5.9a3.3 3.3 0 0 1-2.1-5.9 3.3 3.3 0 0 1 .2-4.9 3.3 3.3 0 0 1 .4-5c-.5-.7-.8-1.4-.8-2.3C20.5 1.5 22 0 23.8 0h5.5a3 3 0 0 1 2.8 1.6.9.9 0 0 1-1.5 1c-.2-.6-.8-.8-1.3-.8h-5.5a1.6 1.6 0 0 0 0 3.1h6.5c1.2 0 2.3.6 2.9 1.7a.9.9 0 1 1-1.5.8c-.3-.4-.8-.7-1.4-.7h-7a1.6 1.6 0 0 0 0 3.1h8c1.2 0 2.3.7 2.9 1.7a.9.9 0 0 1-1.5.9c-.3-.5-.8-.8-1.4-.8H23a1.6 1.6 0 0 0 0 3.2z"/></svg>