<svg xmlns="http://www.w3.org/2000/svg" width="256" height="212"><mask id="a" fill="#fff"><path fill-rule="evenodd" d="M0 23.4V.7h58.5v22.7z"/></mask><g fill="none" fill-rule="evenodd"><path fill="#4f545c" fill-opacity=".3" d="M58.8 25.9h67.5A51.1 51.1 0 0 1 177.4 77c0 13 10.6 23.7 23.7 23.7a51.4 51.4 0 1 1 0 102.9H60.3a28.8 28.8 0 1 1 0-57.5H63a16.8 16.8 0 1 0 0-33.7h-4.2a43.3 43.3 0 0 1 0-86.5"/><path fill="#1f2225" d="M110.4 28a1 1 0 0 0 1.1 1.2l6.7-.7h.1c.5 0 1 .4 1 .9l.5 4.2c.2 1.2 1.8 1.2 2 .1l1.8-8.6a1 1 0 0 0-1-1.2l-6 .3a1 1 0 0 1-1-.8l-.8-5.2c-.1-1-1.7-1.1-2 0z"/><g fill="#4f545c"><path d="m172.6 108.8 3.7-3.7-2.3-2.4-3.8 3.8zm-69.4 64v-2l-2 2h2m20.1-10.1 1.8-1.8c-2.2.2-4.3 1-6.2 2l2.8 2.8 1.6-1.6a1 1 0 0 1 0-1.4"/><path d="M107.9 164.9c.3.3.3.9 0 1.2l-.7.7c.7-.1 1.4-.2 2 0-.2-1.6.2-3.3 1.4-4.5a.9.9 0 0 1 0-1.3l15-15.1-1.5-1.5-40.3 40.4a2.4 2.4 0 0 0-.2 3.1l23-23c.4-.4 1-.4 1.3 0m-12.6 25.5-2.3-2.3-1.1 1-3.6 3.6.8.8c.6.6 1.5.8 2.3.6l3.5-3.5.4-.2m73.7-85.2 3.7-3.7-1.1-1.2-.5-.3c-1 .5-2.1.7-3.2.7l-1.8 1.7zm-77.8 77.6-6.4 6.4 2.2 2.2 4.8-4.8a5.3 5.3 0 0 1-.6-3.8M127 159h.1l1.9-1.9c-2.7.3-5.2 1.2-7.4 2.7a19 19 0 0 1 5.4-.8m48-47.9 2-2a2.4 2.4 0 0 0 .5-2.6l-3.6 3.6zm-77.7 67.7v-2l-2 2h2"/><path d="m117 161.4.9-.9a18 18 0 0 1 12.8-5.3l2.2-2-6-6-13.7 13.6a5 5 0 0 1 3.8.6m-6.5.8h.1a6 6 0 0 1 2.6-1.4L127 147l-1.3-1.2-15 15c-.4.4-.4 1 0 1.3m-18 18a5 5 0 0 1 2.5-1.3l2.1-2.1a5.2 5.2 0 0 1 4-4l2-2a5.2 5.2 0 0 1 4-4l.7-.7a.9.9 0 0 0-1.3-1.2l-23 23c0 .1 0 .2.2.3l1 1 6.4-6.4c.2-1 .7-1.8 1.4-2.5"/><path d="m117.9 160.5-.9.9c.4.2.8.4 1.1.8l.8.7a15 15 0 0 1 6.2-2l1.9-2h-.1c-1.9 0-3.7.4-5.4 1 2.2-1.6 4.7-2.5 7.4-2.8l1.9-1.9h-.1a18 18 0 0 0-12.8 5.3m-25 27.6-.3-.4-.8-1-4.8 4.7 1.3 1.3 3.6-3.7 1-1m2 2.6-3.5 3.5c.4-.1.8-.3 1.1-.6l.8-.8a1 1 0 0 1 1.4 0l1.4-1.4-.8-.9-.4.2m75.3-84.1 3.8-3.8-1.3-1.2-3.7 3.7zm.8-6.5c-.8-.6-2-.4-2.8.3l-.3.4c1 0 2.2-.2 3.2-.7m2.7 10 3.6-3.5c0-.3-.3-.6-.5-.8l-.6-.6-3.7 3.7z"/></g><path fill="#72767d" d="M118.7 106.4a1 1 0 1 1 1.4 1.4l-9 9c-.4.4-.6 1-.6 1.5s.2 1.1.6 1.5l5.5 5.5a1 1 0 1 1-1.4 1.5l-5.5-5.6a4 4 0 0 1 0-5.8zm4-4 .6-.6a1 1 0 1 1 1.4 1.4l-.6.6a1 1 0 0 1-1.4 0 1 1 0 0 1 0-1.4zm42.7 15.2a4 4 0 0 1-5.7 0 4 4 0 0 1 0-5.8 4 4 0 0 1 5.7 5.8zm-33 23.2a4 4 0 0 1 4-4c1.1 0 2.2.4 3 1.1a4 4 0 1 1-7 3zM106.6 124l14.6 14.7 25.8-25.8a1 1 0 0 1 1.4 1.4L122.7 140l14.5 14.5 39.2-39.2-14.6-14.5-8.6 8.6a1 1 0 0 1-1.4 0 1 1 0 0 1 0-1.4l8.6-8.6-14.6-14.6a8.1 8.1 0 0 0-11.4 0l-27.8 27.7a8.1 8.1 0 0 0 0 11.4z"/><path fill="#b9bbbe" d="m161.8 100.9-8.6 8.6a1 1 0 0 1-1.4 0l-3.4 3.4c.4.4.4 1 0 1.4L122.7 140l14.5 14.5 39.2-39.2z"/><path fill="#72767d" d="m189.4 140-3 3a1 1 0 0 1-1.4 0 1 1 0 0 1 0-1.4l3-3a2 2 0 0 0 0-2.9l-1.4-1.3a1 1 0 0 1 1.4-1.4l1.4 1.3a4 4 0 0 1 0 5.8m3-8.7-14.6-14.6-39.2 39.2 14.6 14.6a8.1 8.1 0 0 0 11.5 0l27.7-27.7a8.1 8.1 0 0 0 0-11.5"/><path fill="#4f545c" d="M161 113.2a2 2 0 0 0 0 3c.9.8 2.2.8 3 0a2 2 0 0 0-3-3m-23 26.1a2 2 0 0 0-3 0 2 2 0 1 0 3 0"/><path fill="#1f2225" d="M221.3 125.5h-6.8a1 1 0 1 0 0 2h6.8a1 1 0 1 0 0-2m-10.9-21h.4l6.4-2.3a1 1 0 1 0-.7-1.9l-6.4 2.3a1 1 0 0 0 .3 2m-7-26.3-5.2 4.3a1 1 0 1 0 1.2 1.6l5.3-4.4a1 1 0 1 0-1.3-1.5m-23-9a1 1 0 0 0 1.4-.4l3.4-5.9a1 1 0 1 0-1.7-1l-3.4 6a1 1 0 0 0 .3 1.3M159 61.5h.2a1 1 0 0 0 1-.9l1.1-6.7a1 1 0 0 0-2-.3l-1.1 6.7c-.1.5.2 1 .8 1.2m-23 130.1a1 1 0 0 0-1.1.8l-1.2 6.7a1 1 0 0 0 2 .4l1.1-6.7a1 1 0 0 0-.8-1.2m-1.5-138.8a1 1 0 0 0-.8 1.1l1.2 6.7a1 1 0 1 0 2-.3l-1.2-6.7a1 1 0 0 0-1.2-.8M159 191.6a1 1 0 0 0-.8 1.2l1.2 6.7a1 1 0 1 0 2-.4l-1.3-6.7a1 1 0 0 0-1.1-.8m23-7.5a1 1 0 1 0-1.8 1l3.4 6a1 1 0 0 0 1.4.3c.4-.3.6-.9.3-1.4zm17.5-15.2a1 1 0 0 0-1.2 1.5l5.2 4.4a1 1 0 0 0 1.4-.1c.3-.5.3-1-.1-1.4zm17.8-18-6.4-2.4a1 1 0 0 0-.7 2l6.4 2.2a1 1 0 0 0 .7-1.8m-170 8.4c0 .6.4 1 1 1h30.2a8 8 0 0 0 5.7-2.3l20-20a4.7 4.7 0 0 1 7.9 4c-.1 1-.7 2-1.5 2.8l-8.3 8.3a1 1 0 1 0 1.4 1.4l8.3-8.3a6.6 6.6 0 0 0 0-9.7 6.8 6.8 0 0 0-9.5.3L83.3 156a8 8 0 0 1-5.7 2.3H48.1a1 1 0 0 0-1 1m31.5 20.1H22a1 1 0 1 0 0 2h56.7a1 1 0 1 0 0-2m44.7-77.6-.6.6a1 1 0 1 0 1.4 1.4l.6-.6a1 1 0 1 0-1.4-1.4m-4.6 4.6-8.9 8.9c-.7.7-1.2 1.6-1.3 2.6a4 4 0 0 0 1.2 3.3l5.5 5.6a1 1 0 0 0 1.4 0c.4-.4.4-1 0-1.5l-5.5-5.5c-.4-.4-.6-1-.6-1.5s.2-1 .6-1.4l9-9.1a1 1 0 1 0-1.4-1.4M188 133a1 1 0 1 0-1.4 1.4l1.3 1.3a2 2 0 0 1 0 3l-2.9 2.9a1 1 0 0 0 1.4 1.4l3-3a4 4 0 0 0 0-5.7z"/><path fill="#1f2225" d="m192.4 142.9-27.7 27.7a8 8 0 0 1-11.5 0L140 157.4a2 2 0 0 1 0-2.8l36.4-36.3a2 2 0 0 1 2.8 0l13.2 13.1a8 8 0 0 1 0 11.5zm-67 0a4 4 0 0 1 0-5.7l23-23a1 1 0 0 0-1.4-1.3l-24.3 24.3a2 2 0 0 1-2.9 0L106.6 124a8.1 8.1 0 0 1 0-11.4l27.8-27.7a8.1 8.1 0 0 1 11.4 0L159 98c.8.7.8 2 0 2.8l-7.2 7.2a1 1 0 0 0 1.4 1.4l5.8-5.8a4 4 0 0 1 5.7 0l8.8 8.9a4 4 0 0 1 0 5.7L140 151.8a4 4 0 0 1-5.6 0zm42.5-42.2.3-.4a2.4 2.4 0 0 1 3.4 0l1.1 1.2 1.3 1.2 2.3 2.4.6.6a2.4 2.4 0 0 1 0 3.4l-.6.6a2 2 0 0 1-2.8 0l-6-6a2 2 0 0 1 0-2.7zm10.3 10a5 5 0 0 0 1.4-2.8c.2-1.3-.3-2.7-1.3-3.6l-5.3-5.4a4.4 4.4 0 0 0-6.2 0 2.9 2.9 0 0 1-4.1 0l-15.5-15.4c-4-4-10.3-4-14.3 0l-13 13a4 4 0 0 1-6.3-.7L102 76.5a1 1 0 0 0-1.5-.3l-10 6.9a6 6 0 0 1-9.3-3.6l-11.7-50c-.6-2.2 2.5-3.4 3.6-1.4l20 34.4a1 1 0 0 0 1.3.3l13-8.7A3 3 0 0 1 112 56l4.5 23.7a1 1 0 0 0 2-.4l-5.7-29.6a1 1 0 0 0-1.5-.7l-10 6.8A8 8 0 0 1 89.7 53L64.6 9.5c-.2-.4-.8-.6-1.2-.4a1 1 0 0 0-.6 1.1L81.5 90a1 1 0 0 0 1.5.6l15-10.3a3 3 0 0 1 4.3 1L113.2 99a4 4 0 0 1-.6 4.9l-7.2 7.2c-1.8 1.8-3 4.3-3.1 6.9a10 10 0 0 0 3 7.6l12.5 12.5a7 7 0 0 1 0 10L96 169.5a8.6 8.6 0 0 1-6 2.6c-1.5 0-3.1-.4-4.6-1.7a1 1 0 0 0-1.3 1.5 8.6 8.6 0 0 0 7.4 2.1l-9.1 9.1a4.5 4.5 0 0 0-.2 6.4l5.3 5.2c.7.7 1.6 1.2 2.6 1.4 1.4.1 2.7-.3 3.7-1.3l.8-.8c.4-.4.4-1 0-1.4a1 1 0 0 0-1.4 0l-.8.8c-.3.3-.7.5-1 .6-.9.2-1.8 0-2.4-.6l-.8-.8-1.3-1.3-2.2-2.2-1-1-.2-.3a2.4 2.4 0 0 1 .2-3.1l38.2-38.3a3 3 0 0 1 4.3 0l4.4 4.5a3 3 0 0 1 0 4.2L127 159l-1.9 1.9-1.8 1.8a1 1 0 1 0 1.4 1.4l4.6-4.6a7 7 0 0 1 10 0l12.5 12.5a10 10 0 0 0 14.3 0l27.7-27.7a10 10 0 0 0-.2-14.5l-15.4-15.4c-1-1-1-2.7 0-3.8z"/><path fill="#1f2225" d="M164 116.2c-.8.8-2.1.8-3 0a2 2 0 1 1 3 0m1.4-4.4a4 4 0 1 0-5.7 5.8 4 4 0 0 0 5.7-5.8M138 142.3a2 2 0 1 1-3-3 2 2 0 0 1 3 3m-1.5-5.6a4 4 0 0 0-4 4.1 4 4 0 0 0 4 4 4 4 0 1 0 0-8m-13.7 37.4a3.3 3.3 0 0 1-4.6 0l-6-6a3.3 3.3 0 0 1 4.6-4.6l6 6a3.3 3.3 0 0 1 0 4.6zm-6 6a3.3 3.3 0 0 1-4.6 0l-6-6a3.3 3.3 0 0 1 4.6-4.6l6 6a3.3 3.3 0 0 1 0 4.7zm-6 6a3.3 3.3 0 0 1-4.6 0l-6-6a3.3 3.3 0 0 1 4.6-4.6l6 6a3.3 3.3 0 0 1 0 4.7zm-6 6.1a3.3 3.3 0 0 1-4.7 0l-6-6a3.3 3.3 0 0 1 4.6-4.6l6 6a3.3 3.3 0 0 1 0 4.6zm17-26.6-2.8-2.8-.8-.7c-.3-.4-.7-.6-1-.8a5.3 5.3 0 0 0-6.4.8 5.2 5.2 0 0 0-1.5 4.5 5.3 5.3 0 0 0-6 6 5.3 5.3 0 0 0-4.6 1.5 5.2 5.2 0 0 0-1.4 4.6 5.3 5.3 0 0 0-6 4 5.3 5.3 0 0 0 1.4 5l.4.3 2.3 2.3.8.9 2.5 2.4a5.2 5.2 0 0 0 9-4.5h.8a5.2 5.2 0 0 0 5.2-6h.8a5.2 5.2 0 0 0 5.2-6h.8a5.2 5.2 0 0 0 3.8-9zm-43 5.5a1 1 0 0 0-1 1v1.6a1 1 0 1 0 2 0v-1.6c0-.5-.5-1-1-1"/><path fill="#1f2225" d="M44.4 13.1 34.3 11a1 1 0 0 0-1.2.6l-2.4 7a2 2 0 0 1-3 1l-14.2-9.3c-1-.7-.3-2.2.8-1.8L26 12c.5.2 1-.1 1.3-.6l2.4-6.1a2 2 0 0 1 2.9-1l12.5 7c1 .5.4 2-.7 1.8m14 4.4c.3-.5 0-1-.4-1.2L30.6.9a1 1 0 0 0-1.4.5L26 9a1 1 0 0 1-1.2.5L1.3 2.3A1 1 0 0 0 .5 4l29.3 19.1a1 1 0 0 0 1 .2c.2-.1.4-.4.5-.7l3.1-8.9a1 1 0 0 1 1.2-.6l21.7 5c.5 0 1-.2 1.2-.7" mask="url(#a)" transform="translate(4 66.6)"/><path fill="#1f2225" d="M88.3 109.1a1 1 0 0 0-1 1c0 .9-.7 1.5-1.5 1.5a1 1 0 1 0 0 2c.8 0 1.5.7 1.5 1.6a1 1 0 0 0 2 0c0-.9.7-1.6 1.5-1.6a1 1 0 1 0 0-2c-.8 0-1.5-.6-1.5-1.5 0-.5-.5-1-1-1m-54.7 17.6h-.5a1 1 0 0 1-1-1v-.5a1 1 0 1 0-2 0v.5c0 .6-.4 1-1 1h-.5a1 1 0 1 0 0 2h.5c.6 0 1 .5 1 1v.6a1 1 0 1 0 2 0v-.6c0-.5.5-1 1-1h.5a1 1 0 1 0 0-2m117-85c.7 0 1.4.6 1.4 1.4a1 1 0 1 0 2 0c0-.8.7-1.5 1.5-1.5a1 1 0 0 0 0-2c-.8 0-1.5-.6-1.5-1.5a1 1 0 0 0-2 0c0 .9-.7 1.5-1.5 1.5a1 1 0 0 0 0 2M62.8 97.8 61.6 99a1 1 0 1 0 1.4 1.4l1.2-1.2a1 1 0 1 0-1.4-1.4m-7 8.5a1 1 0 0 0 1.3 0l1.2-1.1a1 1 0 1 0-1.4-1.5l-1.2 1.2a1 1 0 0 0 0 1.4m7.8.3a1 1 0 0 0 .7-1.7l-1.2-1.2a1 1 0 0 0-1.4 1.5l1.2 1.1c.2.2.5.3.7.3m-6.6-6.2a1 1 0 0 0 1.4 0c.4-.4.4-1 0-1.4l-1.2-1.2a1 1 0 0 0-1.4 1.4zM44.7 49.2a1.5 1.5 0 1 1 0 3 1.5 1.5 0 0 1 0-3m0 5a3.5 3.5 0 1 0 0-7 3.5 3.5 0 0 0 0 7"/><path d="M0 1h256v212H0z"/></g></svg>