<svg xmlns="http://www.w3.org/2000/svg" fill="none" viewBox="0 0 72 96"><path fill="#d3d6fd" d="M72 29.3v60.3c0 2.2 0 3.4-.4 4.2a4 4 0 0 1-1.8 1.8c-.8.4-2 .4-4.2.4H6.4c-2.2 0-3.4 0-4.2-.4a4 4 0 0 1-1.8-1.8c-.4-.8-.4-2-.4-4.2V6.4C0 4.2 0 3 .4 2.2A4 4 0 0 1 2.2.4C3 0 4.2 0 6.4 0h36.3c2 0 3 0 3.9.2l1.4.5v16.9c0 2.2 0 3.4.4 4.2a4 4 0 0 0 1.8 1.8c.8.4 2 .4 4.2.4h16.9l.5 1.4c.2 1 .2 2 .2 3.9z"/><path fill="#939bf9" d="M68.3 20.3c1.3 1.3 2 2 2.5 2.8l.5.9H54.4c-2.2 0-3.4 0-4.2-.4a4 4 0 0 1-1.8-1.8c-.4-.8-.4-2-.4-4.2V.7l.9.5c.8.5 1.5 1.2 2.8 2.5z"/><path fill="#5865f2" fill-rule="evenodd" d="M23.7 40.5c.7-.3 1.3-.4 2-.5H28v4h-2l-.8.1a2 2 0 0 0-1 1.1l-.2.7v10.4a7.3 7.3 0 0 1-1.5 3.7 5.6 5.6 0 0 1 1.5 3.7V74l.1.8c.2.4.6.8 1.1 1l.7.2H28v4h-2.3c-.7-.1-1.3-.2-2-.5a6 6 0 0 1-3.7-5.2V64l-.1-.8a2 2 0 0 0-1.1-1L18 62h-2v-4h2l.8-.1a2 2 0 0 0 1-1.1l.2-.7V45.7c.1-.7.2-1.3.5-2a6 6 0 0 1 3.2-3.2zm29.5 17.3.7.2H56v4h-2l-.8.1a2 2 0 0 0-1 1.1l-.2.7v10.4c-.1.7-.2 1.3-.5 2a6 6 0 0 1-5.2 3.7H44v-4h2l.8-.1a2 2 0 0 0 1-1.1l.2-.7V63.7a7.3 7.3 0 0 1 1.5-3.7 5.6 5.6 0 0 1-1.5-3.7V46l-.1-.8a2 2 0 0 0-1.1-1L46 44h-2v-4h2.3c.7.1 1.3.2 2 .5a6 6 0 0 1 3.7 5.2V56l.1.8c.2.4.6.8 1.1 1z" clip-rule="evenodd"/></svg>