<svg xmlns="http://www.w3.org/2000/svg" viewBox="0 0 36 36"><path fill="#EF9645" d="m23.2 21-1.7-7-4-8.7a2.5 2.5 0 1 1 4.7-1.9l6.2 15.8-5.2 1.7z"/><path fill="#FFDC5D" d="M31.6 18.4c-.5-2.5-2-6.5-2-6.5L23.8 1.4a2.5 2.5 0 0 0-4.5 2.3l5.3 9.6 1.4 5.4-4-3.6c-3-2.7-5-3.8-5-3.8-.6-.4-1.1-.5-2 0l-6 2.5a1 1 0 0 0-.3.4l-2.3 3a2.5 2.5 0 1 0 3.8 3.3s1.8-2.6 2-2.7c1-.5 3-1.4 3.8-1.4.9 0 6.3 6 6.3 6 .2.2.2.6 0 .9l-2.9 5.2-.3.3-2.7 1.5h-.5l-5.3-2.2-.6-.6c-.7-1.8-.9-3.6-.9-3.6a2.5 2.5 0 1 0-5 .2c0 .3.4 5.6 4.7 9.3 2.6 2.1 5.7 3 9.7 2.4 4.6-.6 7.5-1.2 11.5-9.6 1.1-2.3 1.9-6 1.6-7.8z"/></svg>