<svg xmlns="http://www.w3.org/2000/svg" viewBox="0 0 36 36"><path fill="#BF6952" d="M33.5 23.2a8 8 0 0 0-.4-5 8 8 0 0 0-3.3-3.7c.3-1.2.2-2.5-.3-3.8a6.3 6.3 0 0 0-4.7-3.5 3 3 0 0 0 0-2.2c-1-3-5-1-8-5A5.7 5.7 0 0 0 14 5.5c-2.4.4-3.8 1-3.8 1a3.7 3.7 0 0 0-1.5 5.7l-.7.2c-2.3 1-4 3-4 5.5 0 1 .4 2 .9 2.9A8 8 0 0 0 0 28c0 4.4 3.7 8 8.2 8 3.3 0 6.6-.7 9.6-1.7 2.2 1 5.7 1.7 10.9 1.7a7.3 7.3 0 0 0 4.8-12.8z"/><ellipse cx="13.5" cy="15.5" fill="#F5F8FA" rx="3.5" ry="4.5"/><ellipse cx="23.5" cy="15.5" fill="#F5F8FA" rx="3.5" ry="4.5"/><ellipse cx="14" cy="15.5" fill="#292F33" rx="2" ry="2.5"/><ellipse cx="23" cy="15.5" fill="#292F33" rx="2" ry="2.5"/><path fill="#292F33" d="M9.4 24.9c-.2-.5 0-.9.6-.9h18c.6 0 .8.4.6.9 0 0-2.6 5.1-9.6 5.1s-9.6-5.1-9.6-5.1z"/><path fill="#F2ABBA" d="M19 26c-2.8 0-5.2 1-6.3 2.3 1.5 1 3.6 1.7 6.3 1.7s4.8-.8 6.3-1.7C24.2 26.9 21.8 26 19 26z"/></svg>